%TF.GenerationSoftware,KiCad,Pcbnew,8.0.2*%
%TF.CreationDate,2024-06-01T15:43:26+01:00*%
%TF.ProjectId,hdmi-csi,68646d69-2d63-4736-992e-6b696361645f,rev?*%
%TF.SameCoordinates,Original*%
%TF.FileFunction,Copper,L2,Inr*%
%TF.FilePolarity,Positive*%
%FSLAX46Y46*%
G04 Gerber Fmt 4.6, Leading zero omitted, Abs format (unit mm)*
G04 Created by KiCad (PCBNEW 8.0.2) date 2024-06-01 15:43:26*
%MOMM*%
%LPD*%
G01*
G04 APERTURE LIST*
%TA.AperFunction,ComponentPad*%
%ADD10C,2.000000*%
%TD*%
%TA.AperFunction,ViaPad*%
%ADD11C,0.600000*%
%TD*%
G04 APERTURE END LIST*
D10*
%TO.N,GND*%
%TO.C,CN1*%
X184950000Y-76850000D03*
X180050000Y-76250000D03*
X180050000Y-61750000D03*
X184950000Y-61150000D03*
%TD*%
D11*
%TO.N,GND*%
X181100000Y-64750000D03*
X181125000Y-66275000D03*
X181150000Y-67775000D03*
X181200000Y-69300000D03*
X181200000Y-71600000D03*
%TO.N,+3.3V*%
X177100000Y-73400000D03*
X181000000Y-73400000D03*
%TO.N,/CAM_SDA*%
X174900000Y-71000000D03*
X161500000Y-63000000D03*
%TO.N,/CAM_SCL*%
X174200000Y-71600000D03*
X160700000Y-63671750D03*
%TO.N,GND*%
X155300000Y-73000000D03*
X155300000Y-67000000D03*
X155300000Y-70000000D03*
%TO.N,+3.3V*%
X155200000Y-62000000D03*
X159200000Y-62000000D03*
%TO.N,GND*%
X155300000Y-76000000D03*
%TD*%
%TA.AperFunction,Conductor*%
%TO.N,GND*%
G36*
X184003032Y-50500648D02*
G01*
X184336929Y-50517052D01*
X184349037Y-50518245D01*
X184452146Y-50533539D01*
X184676699Y-50566849D01*
X184688617Y-50569219D01*
X185009951Y-50649709D01*
X185021588Y-50653240D01*
X185092806Y-50678722D01*
X185333467Y-50764832D01*
X185344688Y-50769479D01*
X185644163Y-50911120D01*
X185654871Y-50916844D01*
X185938988Y-51087137D01*
X185949106Y-51093897D01*
X186215170Y-51291224D01*
X186224576Y-51298944D01*
X186470013Y-51521395D01*
X186478604Y-51529986D01*
X186665755Y-51736475D01*
X186701055Y-51775423D01*
X186708775Y-51784829D01*
X186906102Y-52050893D01*
X186912862Y-52061011D01*
X187041776Y-52276092D01*
X187083148Y-52345116D01*
X187088885Y-52355848D01*
X187230514Y-52655297D01*
X187235170Y-52666540D01*
X187346759Y-52978411D01*
X187350292Y-52990055D01*
X187430777Y-53311369D01*
X187433151Y-53323305D01*
X187481754Y-53650962D01*
X187482947Y-53663071D01*
X187499351Y-53996966D01*
X187499500Y-54003051D01*
X187499500Y-83996948D01*
X187499351Y-84003033D01*
X187482947Y-84336928D01*
X187481754Y-84349037D01*
X187433151Y-84676694D01*
X187430777Y-84688630D01*
X187350292Y-85009944D01*
X187346759Y-85021588D01*
X187235170Y-85333459D01*
X187230514Y-85344702D01*
X187088885Y-85644151D01*
X187083148Y-85654883D01*
X186912862Y-85938988D01*
X186906102Y-85949106D01*
X186708775Y-86215170D01*
X186701055Y-86224576D01*
X186478611Y-86470006D01*
X186470006Y-86478611D01*
X186224576Y-86701055D01*
X186215170Y-86708775D01*
X185949106Y-86906102D01*
X185938988Y-86912862D01*
X185654883Y-87083148D01*
X185644151Y-87088885D01*
X185344702Y-87230514D01*
X185333459Y-87235170D01*
X185021588Y-87346759D01*
X185009944Y-87350292D01*
X184688630Y-87430777D01*
X184676694Y-87433151D01*
X184349037Y-87481754D01*
X184336928Y-87482947D01*
X184021989Y-87498419D01*
X184003031Y-87499351D01*
X183996949Y-87499500D01*
X154003051Y-87499500D01*
X153996968Y-87499351D01*
X153976900Y-87498365D01*
X153663071Y-87482947D01*
X153650962Y-87481754D01*
X153323305Y-87433151D01*
X153311369Y-87430777D01*
X152990055Y-87350292D01*
X152978411Y-87346759D01*
X152666540Y-87235170D01*
X152655301Y-87230515D01*
X152355844Y-87088883D01*
X152345121Y-87083150D01*
X152061011Y-86912862D01*
X152050893Y-86906102D01*
X151784829Y-86708775D01*
X151775423Y-86701055D01*
X151736475Y-86665755D01*
X151529986Y-86478604D01*
X151521395Y-86470013D01*
X151298944Y-86224576D01*
X151291224Y-86215170D01*
X151093897Y-85949106D01*
X151087137Y-85938988D01*
X150916844Y-85654871D01*
X150911120Y-85644163D01*
X150769479Y-85344688D01*
X150764829Y-85333459D01*
X150718944Y-85205220D01*
X150653240Y-85021588D01*
X150649707Y-85009944D01*
X150640958Y-84975015D01*
X150569219Y-84688617D01*
X150566848Y-84676694D01*
X150518245Y-84349037D01*
X150517052Y-84336927D01*
X150500649Y-84003032D01*
X150500500Y-83996948D01*
X150500500Y-83897648D01*
X152699500Y-83897648D01*
X152699500Y-84102351D01*
X152731522Y-84304534D01*
X152794781Y-84499223D01*
X152858691Y-84624653D01*
X152885208Y-84676694D01*
X152887715Y-84681613D01*
X153008028Y-84847213D01*
X153152786Y-84991971D01*
X153307749Y-85104556D01*
X153318390Y-85112287D01*
X153434607Y-85171503D01*
X153500776Y-85205218D01*
X153500778Y-85205218D01*
X153500781Y-85205220D01*
X153605137Y-85239127D01*
X153695465Y-85268477D01*
X153796557Y-85284488D01*
X153897648Y-85300500D01*
X153897649Y-85300500D01*
X154102351Y-85300500D01*
X154102352Y-85300500D01*
X154304534Y-85268477D01*
X154499219Y-85205220D01*
X154681610Y-85112287D01*
X154774590Y-85044732D01*
X154847213Y-84991971D01*
X154847215Y-84991968D01*
X154847219Y-84991966D01*
X154991966Y-84847219D01*
X154991968Y-84847215D01*
X154991971Y-84847213D01*
X155044732Y-84774590D01*
X155112287Y-84681610D01*
X155205220Y-84499219D01*
X155268477Y-84304534D01*
X155300500Y-84102352D01*
X155300500Y-83897648D01*
X182699500Y-83897648D01*
X182699500Y-84102351D01*
X182731522Y-84304534D01*
X182794781Y-84499223D01*
X182858691Y-84624653D01*
X182885208Y-84676694D01*
X182887715Y-84681613D01*
X183008028Y-84847213D01*
X183152786Y-84991971D01*
X183307749Y-85104556D01*
X183318390Y-85112287D01*
X183434607Y-85171503D01*
X183500776Y-85205218D01*
X183500778Y-85205218D01*
X183500781Y-85205220D01*
X183605137Y-85239127D01*
X183695465Y-85268477D01*
X183796557Y-85284488D01*
X183897648Y-85300500D01*
X183897649Y-85300500D01*
X184102351Y-85300500D01*
X184102352Y-85300500D01*
X184304534Y-85268477D01*
X184499219Y-85205220D01*
X184681610Y-85112287D01*
X184774590Y-85044732D01*
X184847213Y-84991971D01*
X184847215Y-84991968D01*
X184847219Y-84991966D01*
X184991966Y-84847219D01*
X184991968Y-84847215D01*
X184991971Y-84847213D01*
X185044732Y-84774590D01*
X185112287Y-84681610D01*
X185205220Y-84499219D01*
X185268477Y-84304534D01*
X185300500Y-84102352D01*
X185300500Y-83897648D01*
X185268477Y-83695466D01*
X185205220Y-83500781D01*
X185205218Y-83500778D01*
X185205218Y-83500776D01*
X185171503Y-83434607D01*
X185112287Y-83318390D01*
X185104556Y-83307749D01*
X184991971Y-83152786D01*
X184847213Y-83008028D01*
X184681613Y-82887715D01*
X184681612Y-82887714D01*
X184681610Y-82887713D01*
X184624653Y-82858691D01*
X184499223Y-82794781D01*
X184304534Y-82731522D01*
X184129995Y-82703878D01*
X184102352Y-82699500D01*
X183897648Y-82699500D01*
X183873329Y-82703351D01*
X183695465Y-82731522D01*
X183500776Y-82794781D01*
X183318386Y-82887715D01*
X183152786Y-83008028D01*
X183008028Y-83152786D01*
X182887715Y-83318386D01*
X182794781Y-83500776D01*
X182731522Y-83695465D01*
X182699500Y-83897648D01*
X155300500Y-83897648D01*
X155268477Y-83695466D01*
X155205220Y-83500781D01*
X155205218Y-83500778D01*
X155205218Y-83500776D01*
X155171503Y-83434607D01*
X155112287Y-83318390D01*
X155104556Y-83307749D01*
X154991971Y-83152786D01*
X154847213Y-83008028D01*
X154681613Y-82887715D01*
X154681612Y-82887714D01*
X154681610Y-82887713D01*
X154624653Y-82858691D01*
X154499223Y-82794781D01*
X154304534Y-82731522D01*
X154129995Y-82703878D01*
X154102352Y-82699500D01*
X153897648Y-82699500D01*
X153873329Y-82703351D01*
X153695465Y-82731522D01*
X153500776Y-82794781D01*
X153318386Y-82887715D01*
X153152786Y-83008028D01*
X153008028Y-83152786D01*
X152887715Y-83318386D01*
X152794781Y-83500776D01*
X152731522Y-83695465D01*
X152699500Y-83897648D01*
X150500500Y-83897648D01*
X150500500Y-76249994D01*
X178544859Y-76249994D01*
X178544859Y-76250005D01*
X178565385Y-76497729D01*
X178565387Y-76497738D01*
X178626412Y-76738717D01*
X178726266Y-76966364D01*
X178826564Y-77119882D01*
X179448949Y-76497497D01*
X179473967Y-76557896D01*
X179545103Y-76664358D01*
X179635642Y-76754897D01*
X179742104Y-76826033D01*
X179802501Y-76851050D01*
X179179942Y-77473609D01*
X179226768Y-77510055D01*
X179226770Y-77510056D01*
X179445385Y-77628364D01*
X179445396Y-77628369D01*
X179680506Y-77709083D01*
X179925707Y-77750000D01*
X180174293Y-77750000D01*
X180419493Y-77709083D01*
X180654603Y-77628369D01*
X180654614Y-77628364D01*
X180873228Y-77510057D01*
X180873231Y-77510055D01*
X180920056Y-77473609D01*
X180297497Y-76851050D01*
X180357896Y-76826033D01*
X180464358Y-76754897D01*
X180554897Y-76664358D01*
X180626033Y-76557896D01*
X180651050Y-76497498D01*
X181273434Y-77119882D01*
X181373731Y-76966369D01*
X181424777Y-76849994D01*
X183444859Y-76849994D01*
X183444859Y-76850005D01*
X183465385Y-77097729D01*
X183465387Y-77097738D01*
X183526412Y-77338717D01*
X183626266Y-77566364D01*
X183726564Y-77719882D01*
X184348949Y-77097497D01*
X184373967Y-77157896D01*
X184445103Y-77264358D01*
X184535642Y-77354897D01*
X184642104Y-77426033D01*
X184702501Y-77451050D01*
X184079942Y-78073609D01*
X184126768Y-78110055D01*
X184126770Y-78110056D01*
X184345385Y-78228364D01*
X184345396Y-78228369D01*
X184580506Y-78309083D01*
X184825707Y-78350000D01*
X185074293Y-78350000D01*
X185319493Y-78309083D01*
X185554603Y-78228369D01*
X185554614Y-78228364D01*
X185773228Y-78110057D01*
X185773231Y-78110055D01*
X185820056Y-78073609D01*
X185197497Y-77451050D01*
X185257896Y-77426033D01*
X185364358Y-77354897D01*
X185454897Y-77264358D01*
X185526033Y-77157896D01*
X185551050Y-77097497D01*
X186173434Y-77719882D01*
X186273731Y-77566369D01*
X186373587Y-77338717D01*
X186434612Y-77097738D01*
X186434614Y-77097729D01*
X186455141Y-76850005D01*
X186455141Y-76849994D01*
X186434614Y-76602270D01*
X186434612Y-76602261D01*
X186373587Y-76361282D01*
X186273731Y-76133630D01*
X186173434Y-75980116D01*
X185551050Y-76602501D01*
X185526033Y-76542104D01*
X185454897Y-76435642D01*
X185364358Y-76345103D01*
X185257896Y-76273967D01*
X185197498Y-76248949D01*
X185820057Y-75626390D01*
X185820056Y-75626389D01*
X185773229Y-75589943D01*
X185554614Y-75471635D01*
X185554603Y-75471630D01*
X185319493Y-75390916D01*
X185074293Y-75350000D01*
X184825707Y-75350000D01*
X184580506Y-75390916D01*
X184345396Y-75471630D01*
X184345390Y-75471632D01*
X184126761Y-75589949D01*
X184079942Y-75626388D01*
X184079942Y-75626390D01*
X184702502Y-76248949D01*
X184642104Y-76273967D01*
X184535642Y-76345103D01*
X184445103Y-76435642D01*
X184373967Y-76542104D01*
X184348949Y-76602501D01*
X183726564Y-75980116D01*
X183626267Y-76133632D01*
X183526412Y-76361282D01*
X183465387Y-76602261D01*
X183465385Y-76602270D01*
X183444859Y-76849994D01*
X181424777Y-76849994D01*
X181473587Y-76738717D01*
X181534612Y-76497738D01*
X181534614Y-76497729D01*
X181555141Y-76250005D01*
X181555141Y-76249994D01*
X181534614Y-76002270D01*
X181534612Y-76002261D01*
X181473587Y-75761282D01*
X181373731Y-75533630D01*
X181273434Y-75380116D01*
X180651050Y-76002501D01*
X180626033Y-75942104D01*
X180554897Y-75835642D01*
X180464358Y-75745103D01*
X180357896Y-75673967D01*
X180297498Y-75648949D01*
X180920057Y-75026390D01*
X180920056Y-75026389D01*
X180873229Y-74989943D01*
X180654614Y-74871635D01*
X180654603Y-74871630D01*
X180419493Y-74790916D01*
X180174293Y-74750000D01*
X179925707Y-74750000D01*
X179680506Y-74790916D01*
X179445396Y-74871630D01*
X179445390Y-74871632D01*
X179226761Y-74989949D01*
X179179942Y-75026388D01*
X179179942Y-75026390D01*
X179802502Y-75648949D01*
X179742104Y-75673967D01*
X179635642Y-75745103D01*
X179545103Y-75835642D01*
X179473967Y-75942104D01*
X179448949Y-76002501D01*
X178826564Y-75380116D01*
X178726267Y-75533632D01*
X178626412Y-75761282D01*
X178565387Y-76002261D01*
X178565385Y-76002270D01*
X178544859Y-76249994D01*
X150500500Y-76249994D01*
X150500500Y-73399998D01*
X176494318Y-73399998D01*
X176494318Y-73400001D01*
X176514955Y-73556760D01*
X176514956Y-73556762D01*
X176575464Y-73702841D01*
X176671718Y-73828282D01*
X176797159Y-73924536D01*
X176943238Y-73985044D01*
X177021619Y-73995363D01*
X177099999Y-74005682D01*
X177100000Y-74005682D01*
X177100001Y-74005682D01*
X177152254Y-73998802D01*
X177256762Y-73985044D01*
X177402841Y-73924536D01*
X177528282Y-73828282D01*
X177624536Y-73702841D01*
X177685044Y-73556762D01*
X177705682Y-73400000D01*
X177705682Y-73399998D01*
X180394318Y-73399998D01*
X180394318Y-73400001D01*
X180414955Y-73556760D01*
X180414956Y-73556762D01*
X180475464Y-73702841D01*
X180571718Y-73828282D01*
X180697159Y-73924536D01*
X180843238Y-73985044D01*
X180921619Y-73995363D01*
X180999999Y-74005682D01*
X181000000Y-74005682D01*
X181000001Y-74005682D01*
X181052254Y-73998802D01*
X181156762Y-73985044D01*
X181302841Y-73924536D01*
X181428282Y-73828282D01*
X181524536Y-73702841D01*
X181585044Y-73556762D01*
X181605682Y-73400000D01*
X181585044Y-73243238D01*
X181524536Y-73097159D01*
X181428282Y-72971718D01*
X181302841Y-72875464D01*
X181156762Y-72814956D01*
X181156760Y-72814955D01*
X181000001Y-72794318D01*
X180999999Y-72794318D01*
X180843239Y-72814955D01*
X180843237Y-72814956D01*
X180697160Y-72875463D01*
X180571718Y-72971718D01*
X180475463Y-73097160D01*
X180414956Y-73243237D01*
X180414955Y-73243239D01*
X180394318Y-73399998D01*
X177705682Y-73399998D01*
X177685044Y-73243238D01*
X177624536Y-73097159D01*
X177528282Y-72971718D01*
X177402841Y-72875464D01*
X177256762Y-72814956D01*
X177256760Y-72814955D01*
X177100001Y-72794318D01*
X177099999Y-72794318D01*
X176943239Y-72814955D01*
X176943237Y-72814956D01*
X176797160Y-72875463D01*
X176671718Y-72971718D01*
X176575463Y-73097160D01*
X176514956Y-73243237D01*
X176514955Y-73243239D01*
X176494318Y-73399998D01*
X150500500Y-73399998D01*
X150500500Y-71599998D01*
X173594318Y-71599998D01*
X173594318Y-71600001D01*
X173614955Y-71756760D01*
X173614956Y-71756762D01*
X173675464Y-71902841D01*
X173771718Y-72028282D01*
X173897159Y-72124536D01*
X174043238Y-72185044D01*
X174121619Y-72195363D01*
X174199999Y-72205682D01*
X174200000Y-72205682D01*
X174200001Y-72205682D01*
X174252254Y-72198802D01*
X174356762Y-72185044D01*
X174502841Y-72124536D01*
X174628282Y-72028282D01*
X174724536Y-71902841D01*
X174785044Y-71756762D01*
X174790838Y-71712751D01*
X174819102Y-71648858D01*
X174877426Y-71610386D01*
X174897591Y-71605999D01*
X174899999Y-71605681D01*
X174900000Y-71605682D01*
X175056762Y-71585044D01*
X175202841Y-71524536D01*
X175328282Y-71428282D01*
X175424536Y-71302841D01*
X175485044Y-71156762D01*
X175505682Y-71000000D01*
X175485044Y-70843238D01*
X175424536Y-70697159D01*
X175328282Y-70571718D01*
X175202841Y-70475464D01*
X175056762Y-70414956D01*
X175056760Y-70414955D01*
X174900001Y-70394318D01*
X174899999Y-70394318D01*
X174743239Y-70414955D01*
X174743237Y-70414956D01*
X174597160Y-70475463D01*
X174471718Y-70571718D01*
X174375463Y-70697160D01*
X174314956Y-70843237D01*
X174314956Y-70843239D01*
X174309162Y-70887247D01*
X174280895Y-70951144D01*
X174222570Y-70989614D01*
X174202409Y-70994000D01*
X174064568Y-71012147D01*
X174043238Y-71014956D01*
X174043237Y-71014956D01*
X173897160Y-71075463D01*
X173771718Y-71171718D01*
X173675463Y-71297160D01*
X173614956Y-71443237D01*
X173614955Y-71443239D01*
X173594318Y-71599998D01*
X150500500Y-71599998D01*
X150500500Y-63671748D01*
X160094318Y-63671748D01*
X160094318Y-63671751D01*
X160114955Y-63828510D01*
X160114956Y-63828512D01*
X160175464Y-63974591D01*
X160271718Y-64100032D01*
X160397159Y-64196286D01*
X160543238Y-64256794D01*
X160621619Y-64267113D01*
X160699999Y-64277432D01*
X160700000Y-64277432D01*
X160700001Y-64277432D01*
X160752254Y-64270552D01*
X160856762Y-64256794D01*
X161002841Y-64196286D01*
X161128282Y-64100032D01*
X161224536Y-63974591D01*
X161285044Y-63828512D01*
X161301357Y-63704599D01*
X161329623Y-63640703D01*
X161387948Y-63602232D01*
X161440480Y-63597846D01*
X161500000Y-63605682D01*
X161500001Y-63605682D01*
X161559521Y-63597846D01*
X161656762Y-63585044D01*
X161802841Y-63524536D01*
X161928282Y-63428282D01*
X162024536Y-63302841D01*
X162085044Y-63156762D01*
X162105682Y-63000000D01*
X162085044Y-62843238D01*
X162024536Y-62697159D01*
X161928282Y-62571718D01*
X161802841Y-62475464D01*
X161656762Y-62414956D01*
X161656760Y-62414955D01*
X161500001Y-62394318D01*
X161499999Y-62394318D01*
X161343239Y-62414955D01*
X161343237Y-62414956D01*
X161197160Y-62475463D01*
X161071718Y-62571718D01*
X160975463Y-62697160D01*
X160914956Y-62843237D01*
X160914956Y-62843239D01*
X160898642Y-62967150D01*
X160870375Y-63031046D01*
X160812050Y-63069517D01*
X160759519Y-63073903D01*
X160700003Y-63066068D01*
X160699999Y-63066068D01*
X160543239Y-63086705D01*
X160543237Y-63086706D01*
X160397160Y-63147213D01*
X160271718Y-63243468D01*
X160175463Y-63368910D01*
X160114956Y-63514987D01*
X160114955Y-63514989D01*
X160094318Y-63671748D01*
X150500500Y-63671748D01*
X150500500Y-61999998D01*
X154594318Y-61999998D01*
X154594318Y-62000001D01*
X154614955Y-62156760D01*
X154614956Y-62156762D01*
X154675464Y-62302841D01*
X154771718Y-62428282D01*
X154897159Y-62524536D01*
X155043238Y-62585044D01*
X155121619Y-62595363D01*
X155199999Y-62605682D01*
X155200000Y-62605682D01*
X155200001Y-62605682D01*
X155252254Y-62598802D01*
X155356762Y-62585044D01*
X155502841Y-62524536D01*
X155628282Y-62428282D01*
X155724536Y-62302841D01*
X155785044Y-62156762D01*
X155798802Y-62052254D01*
X155805682Y-62000001D01*
X155805682Y-61999998D01*
X158594318Y-61999998D01*
X158594318Y-62000001D01*
X158614955Y-62156760D01*
X158614956Y-62156762D01*
X158675464Y-62302841D01*
X158771718Y-62428282D01*
X158897159Y-62524536D01*
X159043238Y-62585044D01*
X159121619Y-62595363D01*
X159199999Y-62605682D01*
X159200000Y-62605682D01*
X159200001Y-62605682D01*
X159252254Y-62598802D01*
X159356762Y-62585044D01*
X159502841Y-62524536D01*
X159628282Y-62428282D01*
X159724536Y-62302841D01*
X159785044Y-62156762D01*
X159798802Y-62052254D01*
X159805682Y-62000001D01*
X159805682Y-61999998D01*
X159785044Y-61843239D01*
X159785044Y-61843238D01*
X159746421Y-61749994D01*
X178544859Y-61749994D01*
X178544859Y-61750005D01*
X178565385Y-61997729D01*
X178565387Y-61997738D01*
X178626412Y-62238717D01*
X178726266Y-62466364D01*
X178826564Y-62619882D01*
X179448949Y-61997497D01*
X179473967Y-62057896D01*
X179545103Y-62164358D01*
X179635642Y-62254897D01*
X179742104Y-62326033D01*
X179802501Y-62351050D01*
X179179942Y-62973609D01*
X179226768Y-63010055D01*
X179226770Y-63010056D01*
X179445385Y-63128364D01*
X179445396Y-63128369D01*
X179680506Y-63209083D01*
X179925707Y-63250000D01*
X180174293Y-63250000D01*
X180419493Y-63209083D01*
X180654603Y-63128369D01*
X180654614Y-63128364D01*
X180873228Y-63010057D01*
X180873231Y-63010055D01*
X180920056Y-62973609D01*
X180297497Y-62351050D01*
X180357896Y-62326033D01*
X180464358Y-62254897D01*
X180554897Y-62164358D01*
X180626033Y-62057896D01*
X180651050Y-61997498D01*
X181273434Y-62619882D01*
X181373731Y-62466369D01*
X181473587Y-62238717D01*
X181534612Y-61997738D01*
X181534614Y-61997729D01*
X181555141Y-61750005D01*
X181555141Y-61749994D01*
X181534614Y-61502270D01*
X181534612Y-61502261D01*
X181473587Y-61261282D01*
X181424772Y-61149994D01*
X183444859Y-61149994D01*
X183444859Y-61150005D01*
X183465385Y-61397729D01*
X183465387Y-61397738D01*
X183526412Y-61638717D01*
X183626266Y-61866364D01*
X183726564Y-62019882D01*
X184348949Y-61397497D01*
X184373967Y-61457896D01*
X184445103Y-61564358D01*
X184535642Y-61654897D01*
X184642104Y-61726033D01*
X184702501Y-61751050D01*
X184079942Y-62373609D01*
X184126768Y-62410055D01*
X184126770Y-62410056D01*
X184345385Y-62528364D01*
X184345396Y-62528369D01*
X184580506Y-62609083D01*
X184825707Y-62650000D01*
X185074293Y-62650000D01*
X185319493Y-62609083D01*
X185554603Y-62528369D01*
X185554614Y-62528364D01*
X185773228Y-62410057D01*
X185773231Y-62410055D01*
X185820056Y-62373609D01*
X185197497Y-61751050D01*
X185257896Y-61726033D01*
X185364358Y-61654897D01*
X185454897Y-61564358D01*
X185526033Y-61457896D01*
X185551050Y-61397498D01*
X186173434Y-62019882D01*
X186273731Y-61866369D01*
X186373587Y-61638717D01*
X186434612Y-61397738D01*
X186434614Y-61397729D01*
X186455141Y-61150005D01*
X186455141Y-61149994D01*
X186434614Y-60902270D01*
X186434612Y-60902261D01*
X186373587Y-60661282D01*
X186273731Y-60433630D01*
X186173434Y-60280116D01*
X185551050Y-60902501D01*
X185526033Y-60842104D01*
X185454897Y-60735642D01*
X185364358Y-60645103D01*
X185257896Y-60573967D01*
X185197498Y-60548949D01*
X185820057Y-59926390D01*
X185820056Y-59926389D01*
X185773229Y-59889943D01*
X185554614Y-59771635D01*
X185554603Y-59771630D01*
X185319493Y-59690916D01*
X185074293Y-59650000D01*
X184825707Y-59650000D01*
X184580506Y-59690916D01*
X184345396Y-59771630D01*
X184345390Y-59771632D01*
X184126761Y-59889949D01*
X184079942Y-59926388D01*
X184079942Y-59926390D01*
X184702502Y-60548949D01*
X184642104Y-60573967D01*
X184535642Y-60645103D01*
X184445103Y-60735642D01*
X184373967Y-60842104D01*
X184348949Y-60902501D01*
X183726564Y-60280116D01*
X183626267Y-60433632D01*
X183526412Y-60661282D01*
X183465387Y-60902261D01*
X183465385Y-60902270D01*
X183444859Y-61149994D01*
X181424772Y-61149994D01*
X181373731Y-61033630D01*
X181273434Y-60880116D01*
X180651050Y-61502501D01*
X180626033Y-61442104D01*
X180554897Y-61335642D01*
X180464358Y-61245103D01*
X180357896Y-61173967D01*
X180297498Y-61148949D01*
X180920057Y-60526390D01*
X180920056Y-60526389D01*
X180873229Y-60489943D01*
X180654614Y-60371635D01*
X180654603Y-60371630D01*
X180419493Y-60290916D01*
X180174293Y-60250000D01*
X179925707Y-60250000D01*
X179680506Y-60290916D01*
X179445396Y-60371630D01*
X179445390Y-60371632D01*
X179226761Y-60489949D01*
X179179942Y-60526388D01*
X179179942Y-60526390D01*
X179802502Y-61148949D01*
X179742104Y-61173967D01*
X179635642Y-61245103D01*
X179545103Y-61335642D01*
X179473967Y-61442104D01*
X179448949Y-61502501D01*
X178826564Y-60880116D01*
X178726267Y-61033632D01*
X178626412Y-61261282D01*
X178565387Y-61502261D01*
X178565385Y-61502270D01*
X178544859Y-61749994D01*
X159746421Y-61749994D01*
X159724536Y-61697159D01*
X159628282Y-61571718D01*
X159502841Y-61475464D01*
X159356762Y-61414956D01*
X159356760Y-61414955D01*
X159200001Y-61394318D01*
X159199999Y-61394318D01*
X159043239Y-61414955D01*
X159043237Y-61414956D01*
X158897160Y-61475463D01*
X158771718Y-61571718D01*
X158675463Y-61697160D01*
X158614956Y-61843237D01*
X158614955Y-61843239D01*
X158594318Y-61999998D01*
X155805682Y-61999998D01*
X155785044Y-61843239D01*
X155785044Y-61843238D01*
X155724536Y-61697159D01*
X155628282Y-61571718D01*
X155502841Y-61475464D01*
X155356762Y-61414956D01*
X155356760Y-61414955D01*
X155200001Y-61394318D01*
X155199999Y-61394318D01*
X155043239Y-61414955D01*
X155043237Y-61414956D01*
X154897160Y-61475463D01*
X154771718Y-61571718D01*
X154675463Y-61697160D01*
X154614956Y-61843237D01*
X154614955Y-61843239D01*
X154594318Y-61999998D01*
X150500500Y-61999998D01*
X150500500Y-54003051D01*
X150500649Y-53996967D01*
X150505528Y-53897648D01*
X152699500Y-53897648D01*
X152699500Y-54102351D01*
X152731522Y-54304534D01*
X152794781Y-54499223D01*
X152887715Y-54681613D01*
X153008028Y-54847213D01*
X153152786Y-54991971D01*
X153307749Y-55104556D01*
X153318390Y-55112287D01*
X153434607Y-55171503D01*
X153500776Y-55205218D01*
X153500778Y-55205218D01*
X153500781Y-55205220D01*
X153605137Y-55239127D01*
X153695465Y-55268477D01*
X153796557Y-55284488D01*
X153897648Y-55300500D01*
X153897649Y-55300500D01*
X154102351Y-55300500D01*
X154102352Y-55300500D01*
X154304534Y-55268477D01*
X154499219Y-55205220D01*
X154681610Y-55112287D01*
X154774590Y-55044732D01*
X154847213Y-54991971D01*
X154847215Y-54991968D01*
X154847219Y-54991966D01*
X154991966Y-54847219D01*
X154991968Y-54847215D01*
X154991971Y-54847213D01*
X155044732Y-54774590D01*
X155112287Y-54681610D01*
X155205220Y-54499219D01*
X155268477Y-54304534D01*
X155300500Y-54102352D01*
X155300500Y-53897648D01*
X182699500Y-53897648D01*
X182699500Y-54102351D01*
X182731522Y-54304534D01*
X182794781Y-54499223D01*
X182887715Y-54681613D01*
X183008028Y-54847213D01*
X183152786Y-54991971D01*
X183307749Y-55104556D01*
X183318390Y-55112287D01*
X183434607Y-55171503D01*
X183500776Y-55205218D01*
X183500778Y-55205218D01*
X183500781Y-55205220D01*
X183605137Y-55239127D01*
X183695465Y-55268477D01*
X183796557Y-55284488D01*
X183897648Y-55300500D01*
X183897649Y-55300500D01*
X184102351Y-55300500D01*
X184102352Y-55300500D01*
X184304534Y-55268477D01*
X184499219Y-55205220D01*
X184681610Y-55112287D01*
X184774590Y-55044732D01*
X184847213Y-54991971D01*
X184847215Y-54991968D01*
X184847219Y-54991966D01*
X184991966Y-54847219D01*
X184991968Y-54847215D01*
X184991971Y-54847213D01*
X185044732Y-54774590D01*
X185112287Y-54681610D01*
X185205220Y-54499219D01*
X185268477Y-54304534D01*
X185300500Y-54102352D01*
X185300500Y-53897648D01*
X185268477Y-53695466D01*
X185205220Y-53500781D01*
X185205218Y-53500778D01*
X185205218Y-53500776D01*
X185159987Y-53412007D01*
X185112287Y-53318390D01*
X185104556Y-53307749D01*
X184991971Y-53152786D01*
X184847213Y-53008028D01*
X184681613Y-52887715D01*
X184681612Y-52887714D01*
X184681610Y-52887713D01*
X184624653Y-52858691D01*
X184499223Y-52794781D01*
X184304534Y-52731522D01*
X184129995Y-52703878D01*
X184102352Y-52699500D01*
X183897648Y-52699500D01*
X183873329Y-52703351D01*
X183695465Y-52731522D01*
X183500776Y-52794781D01*
X183318386Y-52887715D01*
X183152786Y-53008028D01*
X183008028Y-53152786D01*
X182887715Y-53318386D01*
X182794781Y-53500776D01*
X182731522Y-53695465D01*
X182699500Y-53897648D01*
X155300500Y-53897648D01*
X155268477Y-53695466D01*
X155205220Y-53500781D01*
X155205218Y-53500778D01*
X155205218Y-53500776D01*
X155159987Y-53412007D01*
X155112287Y-53318390D01*
X155104556Y-53307749D01*
X154991971Y-53152786D01*
X154847213Y-53008028D01*
X154681613Y-52887715D01*
X154681612Y-52887714D01*
X154681610Y-52887713D01*
X154624653Y-52858691D01*
X154499223Y-52794781D01*
X154304534Y-52731522D01*
X154129995Y-52703878D01*
X154102352Y-52699500D01*
X153897648Y-52699500D01*
X153873329Y-52703351D01*
X153695465Y-52731522D01*
X153500776Y-52794781D01*
X153318386Y-52887715D01*
X153152786Y-53008028D01*
X153008028Y-53152786D01*
X152887715Y-53318386D01*
X152794781Y-53500776D01*
X152731522Y-53695465D01*
X152699500Y-53897648D01*
X150505528Y-53897648D01*
X150517052Y-53663072D01*
X150518245Y-53650962D01*
X150540523Y-53500776D01*
X150566849Y-53323296D01*
X150569218Y-53311385D01*
X150649710Y-52990043D01*
X150653240Y-52978411D01*
X150764835Y-52666525D01*
X150769476Y-52655318D01*
X150911124Y-52355828D01*
X150916840Y-52345136D01*
X151087145Y-52060998D01*
X151093888Y-52050905D01*
X151291232Y-51784818D01*
X151298935Y-51775433D01*
X151521405Y-51529975D01*
X151529975Y-51521405D01*
X151775433Y-51298935D01*
X151784818Y-51291232D01*
X152050905Y-51093888D01*
X152060998Y-51087145D01*
X152345136Y-50916840D01*
X152355828Y-50911124D01*
X152655318Y-50769476D01*
X152666525Y-50764835D01*
X152978412Y-50653239D01*
X152990043Y-50649710D01*
X153311385Y-50569218D01*
X153323296Y-50566849D01*
X153650962Y-50518244D01*
X153663068Y-50517052D01*
X153996967Y-50500648D01*
X154003051Y-50500500D01*
X154065892Y-50500500D01*
X183934108Y-50500500D01*
X183996949Y-50500500D01*
X184003032Y-50500648D01*
G37*
%TD.AperFunction*%
%TD*%
M02*
