%TF.GenerationSoftware,KiCad,Pcbnew,8.0.2*%
%TF.CreationDate,2024-06-01T15:43:26+01:00*%
%TF.ProjectId,hdmi-csi,68646d69-2d63-4736-992e-6b696361645f,rev?*%
%TF.SameCoordinates,Original*%
%TF.FileFunction,Copper,L1,Top*%
%TF.FilePolarity,Positive*%
%FSLAX46Y46*%
G04 Gerber Fmt 4.6, Leading zero omitted, Abs format (unit mm)*
G04 Created by KiCad (PCBNEW 8.0.2) date 2024-06-01 15:43:26*
%MOMM*%
%LPD*%
G01*
G04 APERTURE LIST*
%TA.AperFunction,SMDPad,CuDef*%
%ADD10R,2.800000X3.000000*%
%TD*%
%TA.AperFunction,SMDPad,CuDef*%
%ADD11R,2.000000X0.600000*%
%TD*%
%TA.AperFunction,SMDPad,CuDef*%
%ADD12R,1.900000X0.300000*%
%TD*%
%TA.AperFunction,ComponentPad*%
%ADD13C,2.000000*%
%TD*%
%TA.AperFunction,ViaPad*%
%ADD14C,0.600000*%
%TD*%
%TA.AperFunction,Conductor*%
%ADD15C,0.156500*%
%TD*%
%TA.AperFunction,Conductor*%
%ADD16C,0.300000*%
%TD*%
%TA.AperFunction,Conductor*%
%ADD17C,0.124000*%
%TD*%
G04 APERTURE END LIST*
D10*
%TO.P,FPC1,17,17*%
%TO.N,unconnected-(FPC1-Pad17)*%
X154770000Y-59800000D03*
%TO.P,FPC1,16,16*%
%TO.N,unconnected-(FPC1-Pad16)*%
X154770000Y-78200000D03*
D11*
%TO.P,FPC1,15,15*%
%TO.N,GND*%
X157230000Y-76000000D03*
%TO.P,FPC1,14,14*%
%TO.N,/CAM_D0_N*%
X157230000Y-75000000D03*
%TO.P,FPC1,13,13*%
%TO.N,/CAM_D0_P*%
X157230000Y-74000000D03*
%TO.P,FPC1,12,12*%
%TO.N,GND*%
X157230000Y-73000000D03*
%TO.P,FPC1,11,11*%
%TO.N,/CAM_D1_N*%
X157230000Y-72000000D03*
%TO.P,FPC1,10,10*%
%TO.N,/CAM_D1_P*%
X157230000Y-71000000D03*
%TO.P,FPC1,9,9*%
%TO.N,GND*%
X157230000Y-70000000D03*
%TO.P,FPC1,8,8*%
%TO.N,/CAM_CK_N*%
X157230000Y-69000000D03*
%TO.P,FPC1,7,7*%
%TO.N,/CAM_CK_P*%
X157230000Y-68000000D03*
%TO.P,FPC1,6,6*%
%TO.N,GND*%
X157230000Y-67000000D03*
%TO.P,FPC1,5,5*%
%TO.N,/CAM_IO0*%
X157230000Y-66000000D03*
%TO.P,FPC1,4,4*%
%TO.N,/CAM_IO1*%
X157230000Y-65000000D03*
%TO.P,FPC1,3,3*%
%TO.N,/CAM_SCL*%
X157230000Y-64000000D03*
%TO.P,FPC1,2,2*%
%TO.N,/CAM_SDA*%
X157230000Y-63000000D03*
%TO.P,FPC1,1,1*%
%TO.N,+3.3V*%
X157230000Y-62000000D03*
%TD*%
D12*
%TO.P,CN1,1,TMDSData2+*%
%TO.N,/CAM_IO1*%
X179050000Y-64250000D03*
%TO.P,CN1,2,TMDSData2Shield*%
%TO.N,GND*%
X179050000Y-64750000D03*
%TO.P,CN1,3,TMDSData2-*%
%TO.N,/CAM_IO0*%
X179050000Y-65250000D03*
%TO.P,CN1,4,TMDSData1+*%
%TO.N,/CAM_CK_P*%
X179050000Y-65750000D03*
%TO.P,CN1,5,TMDSData1Shield*%
%TO.N,GND*%
X179050000Y-66250000D03*
%TO.P,CN1,6,TMDSData1-*%
%TO.N,/CAM_CK_N*%
X179050000Y-66750000D03*
%TO.P,CN1,7,TMDSData0+*%
%TO.N,/CAM_D1_P*%
X179050000Y-67250000D03*
%TO.P,CN1,8,TMDSData0Shield*%
%TO.N,GND*%
X179050000Y-67750000D03*
%TO.P,CN1,9,TMDSData0-*%
%TO.N,/CAM_D1_N*%
X179050000Y-68250000D03*
%TO.P,CN1,10,TMDSClock+*%
%TO.N,/CAM_D0_P*%
X179050000Y-68750000D03*
%TO.P,CN1,11,TMDSClockShield*%
%TO.N,GND*%
X179050000Y-69250000D03*
%TO.P,CN1,12,TMDSClock-*%
%TO.N,/CAM_D0_N*%
X179050000Y-69750000D03*
%TO.P,CN1,13,CEC*%
%TO.N,unconnected-(CN1-CEC-Pad13)*%
X179050000Y-70250000D03*
%TO.P,CN1,14,Reserved(N.C.)*%
%TO.N,unconnected-(CN1-Reserved(N.C.)-Pad14)*%
X179050000Y-70750000D03*
%TO.P,CN1,15,SCL*%
%TO.N,/CAM_SDA*%
X179050000Y-71250000D03*
%TO.P,CN1,16,SDA*%
%TO.N,/CAM_SCL*%
X179050000Y-71750000D03*
%TO.P,CN1,17,DDC/CECGround*%
%TO.N,GND*%
X179050000Y-72250000D03*
%TO.P,CN1,18,+5VPower*%
%TO.N,+3.3V*%
X179050000Y-72750000D03*
%TO.P,CN1,19,HotPlugDetect*%
%TO.N,unconnected-(CN1-HotPlugDetect-Pad19)*%
X179050000Y-73250000D03*
D13*
%TO.P,CN1,20,EH*%
%TO.N,GND*%
X184950000Y-76850000D03*
X180050000Y-76250000D03*
X180050000Y-61750000D03*
X184950000Y-61150000D03*
%TD*%
D14*
%TO.N,GND*%
X181100000Y-64750000D03*
X181125000Y-66275000D03*
X181150000Y-67775000D03*
X181200000Y-69300000D03*
X181200000Y-71600000D03*
%TO.N,+3.3V*%
X177100000Y-73400000D03*
X181000000Y-73400000D03*
%TO.N,/CAM_SDA*%
X174900000Y-71000000D03*
X161500000Y-63000000D03*
%TO.N,/CAM_SCL*%
X174200000Y-71600000D03*
X160700000Y-63671750D03*
%TO.N,GND*%
X155300000Y-73000000D03*
X155300000Y-67000000D03*
X155300000Y-70000000D03*
%TO.N,+3.3V*%
X155200000Y-62000000D03*
X159200000Y-62000000D03*
%TO.N,GND*%
X155300000Y-76000000D03*
%TD*%
D15*
%TO.N,/CAM_IO1*%
X168632060Y-63467799D02*
X168752060Y-63467799D01*
X170192060Y-63707799D02*
X170192060Y-64010000D01*
X164000000Y-64250000D02*
X168152060Y-64250000D01*
X163250000Y-65000000D02*
X164000000Y-64250000D01*
X157230000Y-65000000D02*
X163250000Y-65000000D01*
X168392060Y-64010000D02*
X168392060Y-63707799D01*
X170192060Y-64010000D02*
G75*
G03*
X170432060Y-64250040I240040J0D01*
G01*
X169952060Y-63467799D02*
G75*
G02*
X170192101Y-63707799I40J-240001D01*
G01*
X169832060Y-63467799D02*
X169952060Y-63467799D01*
X168992060Y-64792177D02*
G75*
G03*
X169232060Y-65032240I240040J-23D01*
G01*
X169352060Y-65032177D02*
G75*
G03*
X169592077Y-64792177I40J239977D01*
G01*
X168752060Y-63467799D02*
G75*
G02*
X168992101Y-63707799I40J-240001D01*
G01*
X168392060Y-63707799D02*
G75*
G02*
X168632060Y-63467760I240040J-1D01*
G01*
X169592060Y-63707799D02*
G75*
G02*
X169832060Y-63467760I240040J-1D01*
G01*
X168152060Y-64250000D02*
G75*
G03*
X168392100Y-64010000I40J240000D01*
G01*
X168992060Y-63707799D02*
X168992060Y-64010000D01*
X168992060Y-64010000D02*
X168992060Y-64250000D01*
X168992060Y-64250000D02*
X168992060Y-64792177D01*
X170432060Y-64250000D02*
X170552060Y-64250000D01*
X169232060Y-65032177D02*
X169352060Y-65032177D01*
X169592060Y-64792177D02*
X169592060Y-64250000D01*
X169592060Y-64250000D02*
X169592060Y-64010000D01*
X169592060Y-64010000D02*
X169592060Y-63707799D01*
X170552060Y-64250000D02*
X170883043Y-64250000D01*
X170883043Y-64250000D02*
X179050000Y-64250000D01*
%TO.N,/CAM_IO0*%
X168400000Y-66000000D02*
X170300000Y-66000000D01*
X170300000Y-66000000D02*
X171050000Y-65250000D01*
X171050000Y-65250000D02*
X179050000Y-65250000D01*
X166413230Y-66000000D02*
X166413230Y-66542274D01*
X165813230Y-65760000D02*
X165813230Y-65457750D01*
X157230000Y-66000000D02*
X165573230Y-66000000D01*
X165813230Y-65457750D02*
G75*
G02*
X166053230Y-65217730I239970J50D01*
G01*
X167613230Y-65760000D02*
G75*
G03*
X167853230Y-65999970I239970J0D01*
G01*
X167253230Y-65217750D02*
X167373230Y-65217750D01*
X167373230Y-65217750D02*
G75*
G02*
X167613150Y-65457750I-30J-239950D01*
G01*
X166773230Y-66782274D02*
G75*
G03*
X167013174Y-66542274I-30J239974D01*
G01*
X167013230Y-65457750D02*
G75*
G02*
X167253230Y-65217730I239970J50D01*
G01*
X166173230Y-65217750D02*
G75*
G02*
X166413150Y-65457750I-30J-239950D01*
G01*
X167853230Y-66000000D02*
X167973230Y-66000000D01*
X166413230Y-65457750D02*
X166413230Y-65760000D01*
X166413230Y-66542274D02*
G75*
G03*
X166653230Y-66782270I239970J-26D01*
G01*
X165573230Y-66000000D02*
G75*
G03*
X165813200Y-65760000I-30J240000D01*
G01*
X166653230Y-66782274D02*
X166773230Y-66782274D01*
X167013230Y-66542274D02*
X167013230Y-66000000D01*
X167013230Y-66000000D02*
X167013230Y-65760000D01*
X167013230Y-65760000D02*
X167013230Y-65457750D01*
X166413230Y-65760000D02*
X166413230Y-66000000D01*
X166053230Y-65217750D02*
X166173230Y-65217750D01*
X167613230Y-65457750D02*
X167613230Y-65760000D01*
X167973230Y-66000000D02*
X168400000Y-66000000D01*
D16*
%TO.N,GND*%
X179050000Y-64750000D02*
X181100000Y-64750000D01*
X181100000Y-66250000D02*
X181125000Y-66275000D01*
X179050000Y-66250000D02*
X181100000Y-66250000D01*
X181125000Y-67750000D02*
X181150000Y-67775000D01*
X179050000Y-67750000D02*
X181125000Y-67750000D01*
X181150000Y-69250000D02*
X181200000Y-69300000D01*
X179050000Y-69250000D02*
X181150000Y-69250000D01*
X180550000Y-72250000D02*
X181200000Y-71600000D01*
X179050000Y-72250000D02*
X180550000Y-72250000D01*
%TO.N,+3.3V*%
X177750000Y-72750000D02*
X177100000Y-73400000D01*
X179050000Y-72750000D02*
X177750000Y-72750000D01*
X180350000Y-72750000D02*
X181000000Y-73400000D01*
X179050000Y-72750000D02*
X180350000Y-72750000D01*
D17*
%TO.N,/CAM_D0_N*%
X162436400Y-74818302D02*
G75*
G03*
X162918302Y-75300200I481900J2D01*
G01*
X162281698Y-74026996D02*
G75*
G02*
X162436404Y-74181698I2J-154704D01*
G01*
%TO.N,/CAM_D0_P*%
X163436400Y-74818302D02*
G75*
G02*
X163918302Y-74336400I481900J2D01*
G01*
%TO.N,/CAM_D0_N*%
X162436400Y-74336400D02*
X162436400Y-74818302D01*
X161681902Y-74181698D02*
G75*
G02*
X161836604Y-74027002I154698J-2D01*
G01*
X161200000Y-74663600D02*
G75*
G03*
X161681900Y-74181698I0J481900D01*
G01*
X158730001Y-75000000D02*
X159066401Y-74663600D01*
X163763600Y-74818302D02*
G75*
G02*
X163918302Y-74663600I154700J2D01*
G01*
X164200000Y-74663600D02*
X164452139Y-74663600D01*
X164452139Y-74663600D02*
X169167766Y-74663600D01*
%TO.N,/CAM_D0_P*%
X159066401Y-74336400D02*
X161200000Y-74336400D01*
%TO.N,/CAM_D0_N*%
X159066401Y-74663600D02*
X161200000Y-74663600D01*
%TO.N,/CAM_D0_P*%
X157230000Y-74000000D02*
X158730001Y-74000000D01*
X162763600Y-74181698D02*
X162763600Y-74336400D01*
%TO.N,/CAM_D0_N*%
X163281698Y-75300204D02*
G75*
G03*
X163763604Y-74818302I2J481904D01*
G01*
%TO.N,/CAM_D0_P*%
X162918302Y-74973004D02*
X163281698Y-74973004D01*
%TO.N,/CAM_D0_N*%
X161836604Y-74026996D02*
X162281698Y-74026996D01*
X163918302Y-74663600D02*
X164200000Y-74663600D01*
X162436400Y-74181698D02*
X162436400Y-74336400D01*
%TO.N,/CAM_D0_P*%
X162763600Y-74818302D02*
G75*
G03*
X162918302Y-74973000I154700J2D01*
G01*
X162763600Y-74336400D02*
X162763600Y-74818302D01*
%TO.N,/CAM_D0_N*%
X177624999Y-69750000D02*
X179050000Y-69750000D01*
%TO.N,/CAM_D0_P*%
X177624999Y-68750000D02*
X179050000Y-68750000D01*
X164200000Y-74336400D02*
X164452139Y-74336400D01*
%TO.N,/CAM_D0_N*%
X157230000Y-75000000D02*
X158730001Y-75000000D01*
%TO.N,/CAM_D0_P*%
X177288599Y-69086400D02*
X177624999Y-68750000D01*
X161200000Y-74336400D02*
G75*
G03*
X161354700Y-74181698I0J154700D01*
G01*
X163281698Y-74973004D02*
G75*
G03*
X163436404Y-74818302I2J154704D01*
G01*
X161354702Y-74181698D02*
G75*
G02*
X161836604Y-73699802I481898J-2D01*
G01*
X158730001Y-74000000D02*
X159066401Y-74336400D01*
%TO.N,/CAM_D0_N*%
X162918302Y-75300204D02*
X163281698Y-75300204D01*
%TO.N,/CAM_D0_P*%
X161836604Y-73699796D02*
X162281698Y-73699796D01*
X162281698Y-73699796D02*
G75*
G02*
X162763604Y-74181698I2J-481904D01*
G01*
%TO.N,/CAM_D0_N*%
X174417766Y-69413600D02*
X177288599Y-69413600D01*
%TO.N,/CAM_D0_P*%
X174282234Y-69086400D02*
X177288599Y-69086400D01*
X169032234Y-74336400D02*
X174282234Y-69086400D01*
%TO.N,/CAM_D0_N*%
X169167766Y-74663600D02*
X174417766Y-69413600D01*
X177288599Y-69413600D02*
X177624999Y-69750000D01*
%TO.N,/CAM_D0_P*%
X164452139Y-74336400D02*
X169032234Y-74336400D01*
X163918302Y-74336400D02*
X164200000Y-74336400D01*
%TO.N,/CAM_D1_N*%
X157230000Y-72000000D02*
X158730001Y-72000000D01*
%TO.N,/CAM_D1_P*%
X164163600Y-71944539D02*
G75*
G03*
X164400000Y-72180900I236400J39D01*
G01*
%TO.N,/CAM_D1_N*%
X165600000Y-71663600D02*
X165900000Y-71663600D01*
X162600000Y-71663600D02*
G75*
G03*
X163163600Y-71100000I0J563600D01*
G01*
X164600000Y-72508139D02*
G75*
G03*
X165163639Y-71944539I0J563639D01*
G01*
%TO.N,/CAM_D1_P*%
X162600000Y-71336400D02*
G75*
G03*
X162836400Y-71100000I0J236400D01*
G01*
%TO.N,/CAM_D1_N*%
X164400000Y-72508139D02*
X164600000Y-72508139D01*
%TO.N,/CAM_D1_P*%
X172382234Y-67586400D02*
X177288599Y-67586400D01*
X158730001Y-71000000D02*
X159066401Y-71336400D01*
X163600000Y-70491876D02*
G75*
G02*
X164163624Y-71055476I0J-563624D01*
G01*
X177288599Y-67586400D02*
X177624999Y-67250000D01*
X165900000Y-71336400D02*
X168632234Y-71336400D01*
X177624999Y-67250000D02*
X179050000Y-67250000D01*
X164836400Y-71944539D02*
X164836400Y-71900000D01*
X164836400Y-71900000D02*
G75*
G02*
X165400000Y-71336400I563600J0D01*
G01*
%TO.N,/CAM_D1_N*%
X158730001Y-72000000D02*
X159066401Y-71663600D01*
%TO.N,/CAM_D1_P*%
X164600000Y-72180939D02*
G75*
G03*
X164836439Y-71944539I0J236439D01*
G01*
X159066401Y-71336400D02*
X162600000Y-71336400D01*
X164163600Y-71100000D02*
X164163600Y-71944539D01*
X165400000Y-71336400D02*
X165600000Y-71336400D01*
%TO.N,/CAM_D1_N*%
X163836400Y-71055476D02*
X163836400Y-71100000D01*
%TO.N,/CAM_D1_P*%
X162836400Y-71100000D02*
X162836400Y-71055476D01*
%TO.N,/CAM_D1_N*%
X159066401Y-71663600D02*
X162600000Y-71663600D01*
X163400000Y-70819076D02*
X163600000Y-70819076D01*
X165163600Y-71944539D02*
X165163600Y-71900000D01*
X165400000Y-71663600D02*
X165600000Y-71663600D01*
X177288599Y-67913600D02*
X177624999Y-68250000D01*
X177624999Y-68250000D02*
X179050000Y-68250000D01*
X163600000Y-70819076D02*
G75*
G02*
X163836424Y-71055476I0J-236424D01*
G01*
%TO.N,/CAM_D1_P*%
X162836400Y-71055476D02*
G75*
G02*
X163400000Y-70491900I563600J-24D01*
G01*
%TO.N,/CAM_D1_N*%
X165163600Y-71900000D02*
G75*
G02*
X165400000Y-71663600I236400J0D01*
G01*
X163163600Y-71100000D02*
X163163600Y-71055476D01*
X163836400Y-71100000D02*
X163836400Y-71944539D01*
X172517766Y-67913600D02*
X177288599Y-67913600D01*
X168767766Y-71663600D02*
X172517766Y-67913600D01*
%TO.N,/CAM_D1_P*%
X163400000Y-70491876D02*
X163600000Y-70491876D01*
X165600000Y-71336400D02*
X165900000Y-71336400D01*
%TO.N,/CAM_D1_N*%
X163163600Y-71055476D02*
G75*
G02*
X163400000Y-70819100I236400J-24D01*
G01*
%TO.N,/CAM_D1_P*%
X164400000Y-72180939D02*
X164600000Y-72180939D01*
%TO.N,/CAM_D1_N*%
X165900000Y-71663600D02*
X168767766Y-71663600D01*
%TO.N,/CAM_D1_P*%
X157230000Y-71000000D02*
X158730001Y-71000000D01*
%TO.N,/CAM_D1_N*%
X163836400Y-71944539D02*
G75*
G03*
X164400000Y-72508100I563600J39D01*
G01*
%TO.N,/CAM_D1_P*%
X168632234Y-71336400D02*
X172382234Y-67586400D01*
X164163600Y-71055476D02*
X164163600Y-71100000D01*
%TO.N,/CAM_CK_P*%
X158730001Y-68000000D02*
X159066401Y-68336400D01*
X159066401Y-68336400D02*
X163615499Y-68336400D01*
%TO.N,/CAM_CK_N*%
X169167766Y-68663600D02*
X171417766Y-66413600D01*
%TO.N,/CAM_CK_P*%
X165179099Y-68100000D02*
X165179099Y-69099850D01*
%TO.N,/CAM_CK_N*%
X158730001Y-69000000D02*
X159066401Y-68663600D01*
X159066401Y-68663600D02*
X163615499Y-68663600D01*
X164179099Y-68100000D02*
X164179099Y-67900148D01*
X164415499Y-67663748D02*
X164615499Y-67663748D01*
X164851899Y-67900148D02*
X164851899Y-68100000D01*
X166179099Y-69099850D02*
X166179099Y-68900000D01*
%TO.N,/CAM_CK_P*%
X165851899Y-69099850D02*
X165851899Y-68900000D01*
X169032234Y-68336400D02*
X171282234Y-66086400D01*
X163615499Y-68336400D02*
G75*
G03*
X163851900Y-68100000I1J236400D01*
G01*
X163851899Y-67900148D02*
G75*
G02*
X164415499Y-67336499I563601J48D01*
G01*
%TO.N,/CAM_CK_N*%
X157230000Y-69000000D02*
X158730001Y-69000000D01*
%TO.N,/CAM_CK_P*%
X164615499Y-67336548D02*
G75*
G02*
X165179052Y-67900148I1J-563552D01*
G01*
X165851899Y-68900000D02*
G75*
G02*
X166415499Y-68336399I563601J0D01*
G01*
X165615499Y-69336250D02*
G75*
G03*
X165851950Y-69099850I1J236450D01*
G01*
X157230000Y-68000000D02*
X158730001Y-68000000D01*
%TO.N,/CAM_CK_N*%
X165415499Y-69663450D02*
X165615499Y-69663450D01*
%TO.N,/CAM_CK_P*%
X165179099Y-69099850D02*
G75*
G03*
X165415499Y-69336201I236401J50D01*
G01*
X165179099Y-67900148D02*
X165179099Y-68100000D01*
X163851899Y-68100000D02*
X163851899Y-67900148D01*
%TO.N,/CAM_CK_N*%
X166900000Y-68663600D02*
X169167766Y-68663600D01*
X165615499Y-69663450D02*
G75*
G03*
X166179150Y-69099850I1J563650D01*
G01*
X164615499Y-67663748D02*
G75*
G02*
X164851852Y-67900148I1J-236352D01*
G01*
%TO.N,/CAM_CK_P*%
X166415499Y-68336400D02*
X166615499Y-68336400D01*
%TO.N,/CAM_CK_N*%
X166615499Y-68663600D02*
X166900000Y-68663600D01*
X164179099Y-67900148D02*
G75*
G02*
X164415499Y-67663699I236401J48D01*
G01*
X166179099Y-68900000D02*
G75*
G02*
X166415499Y-68663599I236401J0D01*
G01*
%TO.N,/CAM_CK_P*%
X177624999Y-65750000D02*
X179050000Y-65750000D01*
X177288599Y-66086400D02*
X177624999Y-65750000D01*
%TO.N,/CAM_CK_N*%
X164851899Y-69099850D02*
G75*
G03*
X165415499Y-69663401I563601J50D01*
G01*
%TO.N,/CAM_CK_P*%
X164415499Y-67336548D02*
X164615499Y-67336548D01*
%TO.N,/CAM_CK_N*%
X163615499Y-68663600D02*
G75*
G03*
X164179100Y-68100000I1J563600D01*
G01*
%TO.N,/CAM_CK_P*%
X171282234Y-66086400D02*
X177288599Y-66086400D01*
X166900000Y-68336400D02*
X169032234Y-68336400D01*
X166615499Y-68336400D02*
X166900000Y-68336400D01*
X165415499Y-69336250D02*
X165615499Y-69336250D01*
%TO.N,/CAM_CK_N*%
X171417766Y-66413600D02*
X177288599Y-66413600D01*
X177288599Y-66413600D02*
X177624999Y-66750000D01*
X164851899Y-68100000D02*
X164851899Y-69099850D01*
X166415499Y-68663600D02*
X166615499Y-68663600D01*
X177624999Y-66750000D02*
X179050000Y-66750000D01*
D16*
%TO.N,/CAM_SDA*%
X157230000Y-63000000D02*
X161500000Y-63000000D01*
X175150000Y-71250000D02*
X179050000Y-71250000D01*
X174900000Y-71000000D02*
X175150000Y-71250000D01*
%TO.N,/CAM_SCL*%
X157230000Y-64000000D02*
X157558250Y-63671750D01*
X157558250Y-63671750D02*
X160700000Y-63671750D01*
X174200000Y-71600000D02*
X174350000Y-71750000D01*
X174350000Y-71750000D02*
X179050000Y-71750000D01*
%TO.N,GND*%
X157230000Y-73000000D02*
X155300000Y-73000000D01*
X157230000Y-67000000D02*
X155300000Y-67000000D01*
X157230000Y-70000000D02*
X155300000Y-70000000D01*
%TO.N,+3.3V*%
X157230000Y-62000000D02*
X155200000Y-62000000D01*
X157230000Y-62000000D02*
X159200000Y-62000000D01*
%TO.N,GND*%
X157230000Y-76000000D02*
X155300000Y-76000000D01*
%TD*%
M02*
