M48
; DRILL file {KiCad 8.0.2} date 2024-06-01T15:43:23+0100
; FORMAT={-:-/ absolute / metric / decimal}
; #@! TF.CreationDate,2024-06-01T15:43:23+01:00
; #@! TF.GenerationSoftware,Kicad,Pcbnew,8.0.2
; #@! TF.FileFunction,MixedPlating,1,4
FMAT,2
METRIC
; #@! TA.AperFunction,Plated,PTH,ViaDrill
T1C0.300
; #@! TA.AperFunction,Plated,PTH,ComponentDrill
T2C1.300
; #@! TA.AperFunction,NonPlated,NPTH,ComponentDrill
T3C2.100
%
G90
G05
T1
X155.2Y-62.0
X155.3Y-67.0
X155.3Y-70.0
X155.3Y-73.0
X155.3Y-76.0
X159.2Y-62.0
X160.7Y-63.672
X161.5Y-63.0
X174.2Y-71.6
X174.9Y-71.0
X177.1Y-73.4
X181.0Y-73.4
X181.1Y-64.75
X181.125Y-66.275
X181.15Y-67.775
X181.2Y-69.3
X181.2Y-71.6
T2
X180.05Y-61.75
X180.05Y-76.25
X184.95Y-61.15
X184.95Y-76.85
T3
X154.0Y-54.0
X154.0Y-84.0
X184.0Y-54.0
X184.0Y-84.0
M30
