%TF.GenerationSoftware,KiCad,Pcbnew,8.0.2*%
%TF.CreationDate,2024-06-01T15:43:47+01:00*%
%TF.ProjectId,hdmi-csi,68646d69-2d63-4736-992e-6b696361645f,rev?*%
%TF.SameCoordinates,Original*%
%TF.FileFunction,Soldermask,Top*%
%TF.FilePolarity,Negative*%
%FSLAX46Y46*%
G04 Gerber Fmt 4.6, Leading zero omitted, Abs format (unit mm)*
G04 Created by KiCad (PCBNEW 8.0.2) date 2024-06-01 15:43:47*
%MOMM*%
%LPD*%
G01*
G04 APERTURE LIST*
%ADD10R,2.800000X3.000000*%
%ADD11R,2.000000X0.600000*%
%ADD12R,1.900000X0.300000*%
%ADD13C,2.000000*%
%ADD14C,2.100000*%
G04 APERTURE END LIST*
D10*
%TO.C,FPC1*%
X154770000Y-59800000D03*
X154770000Y-78200000D03*
D11*
X157230000Y-76000000D03*
X157230000Y-75000000D03*
X157230000Y-74000000D03*
X157230000Y-73000000D03*
X157230000Y-72000000D03*
X157230000Y-71000000D03*
X157230000Y-70000000D03*
X157230000Y-69000000D03*
X157230000Y-68000000D03*
X157230000Y-67000000D03*
X157230000Y-66000000D03*
X157230000Y-65000000D03*
X157230000Y-64000000D03*
X157230000Y-63000000D03*
X157230000Y-62000000D03*
%TD*%
D12*
%TO.C,CN1*%
X179050000Y-64250000D03*
X179050000Y-64750000D03*
X179050000Y-65250000D03*
X179050000Y-65750000D03*
X179050000Y-66250000D03*
X179050000Y-66750000D03*
X179050000Y-67250000D03*
X179050000Y-67750000D03*
X179050000Y-68250000D03*
X179050000Y-68750000D03*
X179050000Y-69250000D03*
X179050000Y-69750000D03*
X179050000Y-70250000D03*
X179050000Y-70750000D03*
X179050000Y-71250000D03*
X179050000Y-71750000D03*
X179050000Y-72250000D03*
X179050000Y-72750000D03*
X179050000Y-73250000D03*
D13*
X184950000Y-76850000D03*
X180050000Y-76250000D03*
X180050000Y-61750000D03*
X184950000Y-61150000D03*
%TD*%
D14*
%TO.C,H2*%
X184000000Y-54000000D03*
%TD*%
%TO.C,H3*%
X184000000Y-84000000D03*
%TD*%
%TO.C,H1*%
X154000000Y-54000000D03*
%TD*%
%TO.C,H4*%
X154000000Y-84000000D03*
%TD*%
M02*
