%TF.GenerationSoftware,KiCad,Pcbnew,8.0.2*%
%TF.CreationDate,2024-06-01T15:43:41+01:00*%
%TF.ProjectId,hdmi-csi,68646d69-2d63-4736-992e-6b696361645f,rev?*%
%TF.SameCoordinates,Original*%
%TF.FileFunction,Legend,Top*%
%TF.FilePolarity,Positive*%
%FSLAX46Y46*%
G04 Gerber Fmt 4.6, Leading zero omitted, Abs format (unit mm)*
G04 Created by KiCad (PCBNEW 8.0.2) date 2024-06-01 15:43:41*
%MOMM*%
%LPD*%
G01*
G04 APERTURE LIST*
%ADD10C,0.150000*%
%ADD11C,0.100000*%
G04 APERTURE END LIST*
D10*
X161136779Y-84659875D02*
X161136779Y-83659875D01*
X161136779Y-84136065D02*
X161708207Y-84136065D01*
X161708207Y-84659875D02*
X161708207Y-83659875D01*
X162184398Y-84659875D02*
X162184398Y-83659875D01*
X162184398Y-83659875D02*
X162422493Y-83659875D01*
X162422493Y-83659875D02*
X162565350Y-83707494D01*
X162565350Y-83707494D02*
X162660588Y-83802732D01*
X162660588Y-83802732D02*
X162708207Y-83897970D01*
X162708207Y-83897970D02*
X162755826Y-84088446D01*
X162755826Y-84088446D02*
X162755826Y-84231303D01*
X162755826Y-84231303D02*
X162708207Y-84421779D01*
X162708207Y-84421779D02*
X162660588Y-84517017D01*
X162660588Y-84517017D02*
X162565350Y-84612256D01*
X162565350Y-84612256D02*
X162422493Y-84659875D01*
X162422493Y-84659875D02*
X162184398Y-84659875D01*
X163184398Y-84659875D02*
X163184398Y-83659875D01*
X163184398Y-83659875D02*
X163517731Y-84374160D01*
X163517731Y-84374160D02*
X163851064Y-83659875D01*
X163851064Y-83659875D02*
X163851064Y-84659875D01*
X164327255Y-84659875D02*
X164327255Y-83659875D01*
X164803445Y-84278922D02*
X165565350Y-84278922D01*
X166612968Y-84564636D02*
X166565349Y-84612256D01*
X166565349Y-84612256D02*
X166422492Y-84659875D01*
X166422492Y-84659875D02*
X166327254Y-84659875D01*
X166327254Y-84659875D02*
X166184397Y-84612256D01*
X166184397Y-84612256D02*
X166089159Y-84517017D01*
X166089159Y-84517017D02*
X166041540Y-84421779D01*
X166041540Y-84421779D02*
X165993921Y-84231303D01*
X165993921Y-84231303D02*
X165993921Y-84088446D01*
X165993921Y-84088446D02*
X166041540Y-83897970D01*
X166041540Y-83897970D02*
X166089159Y-83802732D01*
X166089159Y-83802732D02*
X166184397Y-83707494D01*
X166184397Y-83707494D02*
X166327254Y-83659875D01*
X166327254Y-83659875D02*
X166422492Y-83659875D01*
X166422492Y-83659875D02*
X166565349Y-83707494D01*
X166565349Y-83707494D02*
X166612968Y-83755113D01*
X166993921Y-84612256D02*
X167136778Y-84659875D01*
X167136778Y-84659875D02*
X167374873Y-84659875D01*
X167374873Y-84659875D02*
X167470111Y-84612256D01*
X167470111Y-84612256D02*
X167517730Y-84564636D01*
X167517730Y-84564636D02*
X167565349Y-84469398D01*
X167565349Y-84469398D02*
X167565349Y-84374160D01*
X167565349Y-84374160D02*
X167517730Y-84278922D01*
X167517730Y-84278922D02*
X167470111Y-84231303D01*
X167470111Y-84231303D02*
X167374873Y-84183684D01*
X167374873Y-84183684D02*
X167184397Y-84136065D01*
X167184397Y-84136065D02*
X167089159Y-84088446D01*
X167089159Y-84088446D02*
X167041540Y-84040827D01*
X167041540Y-84040827D02*
X166993921Y-83945589D01*
X166993921Y-83945589D02*
X166993921Y-83850351D01*
X166993921Y-83850351D02*
X167041540Y-83755113D01*
X167041540Y-83755113D02*
X167089159Y-83707494D01*
X167089159Y-83707494D02*
X167184397Y-83659875D01*
X167184397Y-83659875D02*
X167422492Y-83659875D01*
X167422492Y-83659875D02*
X167565349Y-83707494D01*
X167993921Y-84659875D02*
X167993921Y-83659875D01*
X169803444Y-84564636D02*
X169755825Y-84612256D01*
X169755825Y-84612256D02*
X169612968Y-84659875D01*
X169612968Y-84659875D02*
X169517730Y-84659875D01*
X169517730Y-84659875D02*
X169374873Y-84612256D01*
X169374873Y-84612256D02*
X169279635Y-84517017D01*
X169279635Y-84517017D02*
X169232016Y-84421779D01*
X169232016Y-84421779D02*
X169184397Y-84231303D01*
X169184397Y-84231303D02*
X169184397Y-84088446D01*
X169184397Y-84088446D02*
X169232016Y-83897970D01*
X169232016Y-83897970D02*
X169279635Y-83802732D01*
X169279635Y-83802732D02*
X169374873Y-83707494D01*
X169374873Y-83707494D02*
X169517730Y-83659875D01*
X169517730Y-83659875D02*
X169612968Y-83659875D01*
X169612968Y-83659875D02*
X169755825Y-83707494D01*
X169755825Y-83707494D02*
X169803444Y-83755113D01*
X170374873Y-84659875D02*
X170279635Y-84612256D01*
X170279635Y-84612256D02*
X170232016Y-84564636D01*
X170232016Y-84564636D02*
X170184397Y-84469398D01*
X170184397Y-84469398D02*
X170184397Y-84183684D01*
X170184397Y-84183684D02*
X170232016Y-84088446D01*
X170232016Y-84088446D02*
X170279635Y-84040827D01*
X170279635Y-84040827D02*
X170374873Y-83993208D01*
X170374873Y-83993208D02*
X170517730Y-83993208D01*
X170517730Y-83993208D02*
X170612968Y-84040827D01*
X170612968Y-84040827D02*
X170660587Y-84088446D01*
X170660587Y-84088446D02*
X170708206Y-84183684D01*
X170708206Y-84183684D02*
X170708206Y-84469398D01*
X170708206Y-84469398D02*
X170660587Y-84564636D01*
X170660587Y-84564636D02*
X170612968Y-84612256D01*
X170612968Y-84612256D02*
X170517730Y-84659875D01*
X170517730Y-84659875D02*
X170374873Y-84659875D01*
X171136778Y-83993208D02*
X171136778Y-84659875D01*
X171136778Y-84088446D02*
X171184397Y-84040827D01*
X171184397Y-84040827D02*
X171279635Y-83993208D01*
X171279635Y-83993208D02*
X171422492Y-83993208D01*
X171422492Y-83993208D02*
X171517730Y-84040827D01*
X171517730Y-84040827D02*
X171565349Y-84136065D01*
X171565349Y-84136065D02*
X171565349Y-84659875D01*
X172041540Y-83993208D02*
X172041540Y-84659875D01*
X172041540Y-84088446D02*
X172089159Y-84040827D01*
X172089159Y-84040827D02*
X172184397Y-83993208D01*
X172184397Y-83993208D02*
X172327254Y-83993208D01*
X172327254Y-83993208D02*
X172422492Y-84040827D01*
X172422492Y-84040827D02*
X172470111Y-84136065D01*
X172470111Y-84136065D02*
X172470111Y-84659875D01*
X173327254Y-84612256D02*
X173232016Y-84659875D01*
X173232016Y-84659875D02*
X173041540Y-84659875D01*
X173041540Y-84659875D02*
X172946302Y-84612256D01*
X172946302Y-84612256D02*
X172898683Y-84517017D01*
X172898683Y-84517017D02*
X172898683Y-84136065D01*
X172898683Y-84136065D02*
X172946302Y-84040827D01*
X172946302Y-84040827D02*
X173041540Y-83993208D01*
X173041540Y-83993208D02*
X173232016Y-83993208D01*
X173232016Y-83993208D02*
X173327254Y-84040827D01*
X173327254Y-84040827D02*
X173374873Y-84136065D01*
X173374873Y-84136065D02*
X173374873Y-84231303D01*
X173374873Y-84231303D02*
X172898683Y-84326541D01*
X174232016Y-84612256D02*
X174136778Y-84659875D01*
X174136778Y-84659875D02*
X173946302Y-84659875D01*
X173946302Y-84659875D02*
X173851064Y-84612256D01*
X173851064Y-84612256D02*
X173803445Y-84564636D01*
X173803445Y-84564636D02*
X173755826Y-84469398D01*
X173755826Y-84469398D02*
X173755826Y-84183684D01*
X173755826Y-84183684D02*
X173803445Y-84088446D01*
X173803445Y-84088446D02*
X173851064Y-84040827D01*
X173851064Y-84040827D02*
X173946302Y-83993208D01*
X173946302Y-83993208D02*
X174136778Y-83993208D01*
X174136778Y-83993208D02*
X174232016Y-84040827D01*
X174517731Y-83993208D02*
X174898683Y-83993208D01*
X174660588Y-83659875D02*
X174660588Y-84517017D01*
X174660588Y-84517017D02*
X174708207Y-84612256D01*
X174708207Y-84612256D02*
X174803445Y-84659875D01*
X174803445Y-84659875D02*
X174898683Y-84659875D01*
X175374874Y-84659875D02*
X175279636Y-84612256D01*
X175279636Y-84612256D02*
X175232017Y-84564636D01*
X175232017Y-84564636D02*
X175184398Y-84469398D01*
X175184398Y-84469398D02*
X175184398Y-84183684D01*
X175184398Y-84183684D02*
X175232017Y-84088446D01*
X175232017Y-84088446D02*
X175279636Y-84040827D01*
X175279636Y-84040827D02*
X175374874Y-83993208D01*
X175374874Y-83993208D02*
X175517731Y-83993208D01*
X175517731Y-83993208D02*
X175612969Y-84040827D01*
X175612969Y-84040827D02*
X175660588Y-84088446D01*
X175660588Y-84088446D02*
X175708207Y-84183684D01*
X175708207Y-84183684D02*
X175708207Y-84469398D01*
X175708207Y-84469398D02*
X175660588Y-84564636D01*
X175660588Y-84564636D02*
X175612969Y-84612256D01*
X175612969Y-84612256D02*
X175517731Y-84659875D01*
X175517731Y-84659875D02*
X175374874Y-84659875D01*
X176136779Y-84659875D02*
X176136779Y-83993208D01*
X176136779Y-84183684D02*
X176184398Y-84088446D01*
X176184398Y-84088446D02*
X176232017Y-84040827D01*
X176232017Y-84040827D02*
X176327255Y-83993208D01*
X176327255Y-83993208D02*
X176422493Y-83993208D01*
X161041541Y-85603152D02*
X161565350Y-85603152D01*
X161565350Y-85603152D02*
X161041541Y-86269819D01*
X161041541Y-86269819D02*
X161565350Y-86269819D01*
X161946303Y-86269819D02*
X161946303Y-85603152D01*
X161946303Y-85269819D02*
X161898684Y-85317438D01*
X161898684Y-85317438D02*
X161946303Y-85365057D01*
X161946303Y-85365057D02*
X161993922Y-85317438D01*
X161993922Y-85317438D02*
X161946303Y-85269819D01*
X161946303Y-85269819D02*
X161946303Y-85365057D01*
X162422493Y-86269819D02*
X162422493Y-85269819D01*
X162422493Y-85650771D02*
X162517731Y-85603152D01*
X162517731Y-85603152D02*
X162708207Y-85603152D01*
X162708207Y-85603152D02*
X162803445Y-85650771D01*
X162803445Y-85650771D02*
X162851064Y-85698390D01*
X162851064Y-85698390D02*
X162898683Y-85793628D01*
X162898683Y-85793628D02*
X162898683Y-86079342D01*
X162898683Y-86079342D02*
X162851064Y-86174580D01*
X162851064Y-86174580D02*
X162803445Y-86222200D01*
X162803445Y-86222200D02*
X162708207Y-86269819D01*
X162708207Y-86269819D02*
X162517731Y-86269819D01*
X162517731Y-86269819D02*
X162422493Y-86222200D01*
X163327255Y-86269819D02*
X163327255Y-85269819D01*
X163327255Y-85650771D02*
X163422493Y-85603152D01*
X163422493Y-85603152D02*
X163612969Y-85603152D01*
X163612969Y-85603152D02*
X163708207Y-85650771D01*
X163708207Y-85650771D02*
X163755826Y-85698390D01*
X163755826Y-85698390D02*
X163803445Y-85793628D01*
X163803445Y-85793628D02*
X163803445Y-86079342D01*
X163803445Y-86079342D02*
X163755826Y-86174580D01*
X163755826Y-86174580D02*
X163708207Y-86222200D01*
X163708207Y-86222200D02*
X163612969Y-86269819D01*
X163612969Y-86269819D02*
X163422493Y-86269819D01*
X163422493Y-86269819D02*
X163327255Y-86222200D01*
X164232017Y-86269819D02*
X164232017Y-85603152D01*
X164232017Y-85269819D02*
X164184398Y-85317438D01*
X164184398Y-85317438D02*
X164232017Y-85365057D01*
X164232017Y-85365057D02*
X164279636Y-85317438D01*
X164279636Y-85317438D02*
X164232017Y-85269819D01*
X164232017Y-85269819D02*
X164232017Y-85365057D01*
X164708207Y-85603152D02*
X164708207Y-86269819D01*
X164708207Y-85698390D02*
X164755826Y-85650771D01*
X164755826Y-85650771D02*
X164851064Y-85603152D01*
X164851064Y-85603152D02*
X164993921Y-85603152D01*
X164993921Y-85603152D02*
X165089159Y-85650771D01*
X165089159Y-85650771D02*
X165136778Y-85746009D01*
X165136778Y-85746009D02*
X165136778Y-86269819D01*
X165612969Y-86269819D02*
X165612969Y-85603152D01*
X165612969Y-85269819D02*
X165565350Y-85317438D01*
X165565350Y-85317438D02*
X165612969Y-85365057D01*
X165612969Y-85365057D02*
X165660588Y-85317438D01*
X165660588Y-85317438D02*
X165612969Y-85269819D01*
X165612969Y-85269819D02*
X165612969Y-85365057D01*
X166755826Y-85603152D02*
X166993921Y-86269819D01*
X166993921Y-86269819D02*
X167232016Y-85603152D01*
X168136778Y-86269819D02*
X167565350Y-86269819D01*
X167851064Y-86269819D02*
X167851064Y-85269819D01*
X167851064Y-85269819D02*
X167755826Y-85412676D01*
X167755826Y-85412676D02*
X167660588Y-85507914D01*
X167660588Y-85507914D02*
X167565350Y-85555533D01*
X168565350Y-86174580D02*
X168612969Y-86222200D01*
X168612969Y-86222200D02*
X168565350Y-86269819D01*
X168565350Y-86269819D02*
X168517731Y-86222200D01*
X168517731Y-86222200D02*
X168565350Y-86174580D01*
X168565350Y-86174580D02*
X168565350Y-86269819D01*
X169565349Y-86269819D02*
X168993921Y-86269819D01*
X169279635Y-86269819D02*
X169279635Y-85269819D01*
X169279635Y-85269819D02*
X169184397Y-85412676D01*
X169184397Y-85412676D02*
X169089159Y-85507914D01*
X169089159Y-85507914D02*
X168993921Y-85555533D01*
X170946302Y-85269819D02*
X171041540Y-85269819D01*
X171041540Y-85269819D02*
X171136778Y-85317438D01*
X171136778Y-85317438D02*
X171184397Y-85365057D01*
X171184397Y-85365057D02*
X171232016Y-85460295D01*
X171232016Y-85460295D02*
X171279635Y-85650771D01*
X171279635Y-85650771D02*
X171279635Y-85888866D01*
X171279635Y-85888866D02*
X171232016Y-86079342D01*
X171232016Y-86079342D02*
X171184397Y-86174580D01*
X171184397Y-86174580D02*
X171136778Y-86222200D01*
X171136778Y-86222200D02*
X171041540Y-86269819D01*
X171041540Y-86269819D02*
X170946302Y-86269819D01*
X170946302Y-86269819D02*
X170851064Y-86222200D01*
X170851064Y-86222200D02*
X170803445Y-86174580D01*
X170803445Y-86174580D02*
X170755826Y-86079342D01*
X170755826Y-86079342D02*
X170708207Y-85888866D01*
X170708207Y-85888866D02*
X170708207Y-85650771D01*
X170708207Y-85650771D02*
X170755826Y-85460295D01*
X170755826Y-85460295D02*
X170803445Y-85365057D01*
X170803445Y-85365057D02*
X170851064Y-85317438D01*
X170851064Y-85317438D02*
X170946302Y-85269819D01*
X172184397Y-85269819D02*
X171708207Y-85269819D01*
X171708207Y-85269819D02*
X171660588Y-85746009D01*
X171660588Y-85746009D02*
X171708207Y-85698390D01*
X171708207Y-85698390D02*
X171803445Y-85650771D01*
X171803445Y-85650771D02*
X172041540Y-85650771D01*
X172041540Y-85650771D02*
X172136778Y-85698390D01*
X172136778Y-85698390D02*
X172184397Y-85746009D01*
X172184397Y-85746009D02*
X172232016Y-85841247D01*
X172232016Y-85841247D02*
X172232016Y-86079342D01*
X172232016Y-86079342D02*
X172184397Y-86174580D01*
X172184397Y-86174580D02*
X172136778Y-86222200D01*
X172136778Y-86222200D02*
X172041540Y-86269819D01*
X172041540Y-86269819D02*
X171803445Y-86269819D01*
X171803445Y-86269819D02*
X171708207Y-86222200D01*
X171708207Y-86222200D02*
X171660588Y-86174580D01*
X173374873Y-85222200D02*
X172517731Y-86507914D01*
X173660588Y-85365057D02*
X173708207Y-85317438D01*
X173708207Y-85317438D02*
X173803445Y-85269819D01*
X173803445Y-85269819D02*
X174041540Y-85269819D01*
X174041540Y-85269819D02*
X174136778Y-85317438D01*
X174136778Y-85317438D02*
X174184397Y-85365057D01*
X174184397Y-85365057D02*
X174232016Y-85460295D01*
X174232016Y-85460295D02*
X174232016Y-85555533D01*
X174232016Y-85555533D02*
X174184397Y-85698390D01*
X174184397Y-85698390D02*
X173612969Y-86269819D01*
X173612969Y-86269819D02*
X174232016Y-86269819D01*
X175089159Y-85603152D02*
X175089159Y-86269819D01*
X174851064Y-85222200D02*
X174612969Y-85936485D01*
X174612969Y-85936485D02*
X175232016Y-85936485D01*
X159666666Y-80931009D02*
X159333333Y-80931009D01*
X159333333Y-81454819D02*
X159333333Y-80454819D01*
X159333333Y-80454819D02*
X159809523Y-80454819D01*
X160190476Y-81454819D02*
X160190476Y-80454819D01*
X160190476Y-80454819D02*
X160571428Y-80454819D01*
X160571428Y-80454819D02*
X160666666Y-80502438D01*
X160666666Y-80502438D02*
X160714285Y-80550057D01*
X160714285Y-80550057D02*
X160761904Y-80645295D01*
X160761904Y-80645295D02*
X160761904Y-80788152D01*
X160761904Y-80788152D02*
X160714285Y-80883390D01*
X160714285Y-80883390D02*
X160666666Y-80931009D01*
X160666666Y-80931009D02*
X160571428Y-80978628D01*
X160571428Y-80978628D02*
X160190476Y-80978628D01*
X161761904Y-81359580D02*
X161714285Y-81407200D01*
X161714285Y-81407200D02*
X161571428Y-81454819D01*
X161571428Y-81454819D02*
X161476190Y-81454819D01*
X161476190Y-81454819D02*
X161333333Y-81407200D01*
X161333333Y-81407200D02*
X161238095Y-81311961D01*
X161238095Y-81311961D02*
X161190476Y-81216723D01*
X161190476Y-81216723D02*
X161142857Y-81026247D01*
X161142857Y-81026247D02*
X161142857Y-80883390D01*
X161142857Y-80883390D02*
X161190476Y-80692914D01*
X161190476Y-80692914D02*
X161238095Y-80597676D01*
X161238095Y-80597676D02*
X161333333Y-80502438D01*
X161333333Y-80502438D02*
X161476190Y-80454819D01*
X161476190Y-80454819D02*
X161571428Y-80454819D01*
X161571428Y-80454819D02*
X161714285Y-80502438D01*
X161714285Y-80502438D02*
X161761904Y-80550057D01*
X162714285Y-81454819D02*
X162142857Y-81454819D01*
X162428571Y-81454819D02*
X162428571Y-80454819D01*
X162428571Y-80454819D02*
X162333333Y-80597676D01*
X162333333Y-80597676D02*
X162238095Y-80692914D01*
X162238095Y-80692914D02*
X162142857Y-80740533D01*
X174809523Y-79359580D02*
X174761904Y-79407200D01*
X174761904Y-79407200D02*
X174619047Y-79454819D01*
X174619047Y-79454819D02*
X174523809Y-79454819D01*
X174523809Y-79454819D02*
X174380952Y-79407200D01*
X174380952Y-79407200D02*
X174285714Y-79311961D01*
X174285714Y-79311961D02*
X174238095Y-79216723D01*
X174238095Y-79216723D02*
X174190476Y-79026247D01*
X174190476Y-79026247D02*
X174190476Y-78883390D01*
X174190476Y-78883390D02*
X174238095Y-78692914D01*
X174238095Y-78692914D02*
X174285714Y-78597676D01*
X174285714Y-78597676D02*
X174380952Y-78502438D01*
X174380952Y-78502438D02*
X174523809Y-78454819D01*
X174523809Y-78454819D02*
X174619047Y-78454819D01*
X174619047Y-78454819D02*
X174761904Y-78502438D01*
X174761904Y-78502438D02*
X174809523Y-78550057D01*
X175238095Y-79454819D02*
X175238095Y-78454819D01*
X175238095Y-78454819D02*
X175809523Y-79454819D01*
X175809523Y-79454819D02*
X175809523Y-78454819D01*
X176809523Y-79454819D02*
X176238095Y-79454819D01*
X176523809Y-79454819D02*
X176523809Y-78454819D01*
X176523809Y-78454819D02*
X176428571Y-78597676D01*
X176428571Y-78597676D02*
X176333333Y-78692914D01*
X176333333Y-78692914D02*
X176238095Y-78740533D01*
D11*
%TO.C,FPC1*%
X157500000Y-61000000D02*
X157000000Y-60500000D01*
X158000000Y-60500000D01*
X157500000Y-61000000D01*
G36*
X157500000Y-61000000D02*
G01*
X157000000Y-60500000D01*
X158000000Y-60500000D01*
X157500000Y-61000000D01*
G37*
D10*
X158500000Y-58000000D02*
X153000000Y-58000000D01*
X153000000Y-80000000D02*
X158500000Y-80000000D01*
X153000000Y-58000000D02*
X153000000Y-80000000D01*
%TO.C,CN1*%
X177500000Y-59500000D02*
X187000000Y-59500000D01*
X177500000Y-78500000D02*
X187000000Y-78500000D01*
X187000000Y-78500000D02*
X187000000Y-59500000D01*
%TD*%
M02*
