%TF.GenerationSoftware,KiCad,Pcbnew,8.0.2*%
%TF.CreationDate,2024-06-01T15:43:29+01:00*%
%TF.ProjectId,hdmi-csi,68646d69-2d63-4736-992e-6b696361645f,rev?*%
%TF.SameCoordinates,Original*%
%TF.FileFunction,Copper,L3,Inr*%
%TF.FilePolarity,Positive*%
%FSLAX46Y46*%
G04 Gerber Fmt 4.6, Leading zero omitted, Abs format (unit mm)*
G04 Created by KiCad (PCBNEW 8.0.2) date 2024-06-01 15:43:29*
%MOMM*%
%LPD*%
G01*
G04 APERTURE LIST*
%TA.AperFunction,ComponentPad*%
%ADD10C,2.000000*%
%TD*%
%TA.AperFunction,ViaPad*%
%ADD11C,0.600000*%
%TD*%
G04 APERTURE END LIST*
D10*
%TO.N,GND*%
%TO.C,CN1*%
X184950000Y-76850000D03*
X180050000Y-76250000D03*
X180050000Y-61750000D03*
X184950000Y-61150000D03*
%TD*%
D11*
%TO.N,GND*%
X181100000Y-64750000D03*
X181125000Y-66275000D03*
X181150000Y-67775000D03*
X181200000Y-69300000D03*
X181200000Y-71600000D03*
%TO.N,+3.3V*%
X177100000Y-73400000D03*
X181000000Y-73400000D03*
%TO.N,/CAM_SDA*%
X174900000Y-71000000D03*
X161500000Y-63000000D03*
%TO.N,/CAM_SCL*%
X174200000Y-71600000D03*
X160700000Y-63671750D03*
%TO.N,GND*%
X155300000Y-73000000D03*
X155300000Y-67000000D03*
X155300000Y-70000000D03*
%TO.N,+3.3V*%
X155200000Y-62000000D03*
X159200000Y-62000000D03*
%TO.N,GND*%
X155300000Y-76000000D03*
%TD*%
%TA.AperFunction,Conductor*%
%TO.N,+3.3V*%
G36*
X184003032Y-50500648D02*
G01*
X184336929Y-50517052D01*
X184349037Y-50518245D01*
X184452146Y-50533539D01*
X184676699Y-50566849D01*
X184688617Y-50569219D01*
X185009951Y-50649709D01*
X185021588Y-50653240D01*
X185092806Y-50678722D01*
X185333467Y-50764832D01*
X185344688Y-50769479D01*
X185644163Y-50911120D01*
X185654871Y-50916844D01*
X185938988Y-51087137D01*
X185949106Y-51093897D01*
X186215170Y-51291224D01*
X186224576Y-51298944D01*
X186470013Y-51521395D01*
X186478604Y-51529986D01*
X186665755Y-51736475D01*
X186701055Y-51775423D01*
X186708775Y-51784829D01*
X186906102Y-52050893D01*
X186912862Y-52061011D01*
X187041776Y-52276092D01*
X187083148Y-52345116D01*
X187088885Y-52355848D01*
X187230514Y-52655297D01*
X187235170Y-52666540D01*
X187346759Y-52978411D01*
X187350292Y-52990055D01*
X187430777Y-53311369D01*
X187433151Y-53323305D01*
X187481754Y-53650962D01*
X187482947Y-53663071D01*
X187499351Y-53996966D01*
X187499500Y-54003051D01*
X187499500Y-83996948D01*
X187499351Y-84003033D01*
X187482947Y-84336928D01*
X187481754Y-84349037D01*
X187433151Y-84676694D01*
X187430777Y-84688630D01*
X187350292Y-85009944D01*
X187346759Y-85021588D01*
X187235170Y-85333459D01*
X187230514Y-85344702D01*
X187088885Y-85644151D01*
X187083148Y-85654883D01*
X186912862Y-85938988D01*
X186906102Y-85949106D01*
X186708775Y-86215170D01*
X186701055Y-86224576D01*
X186478611Y-86470006D01*
X186470006Y-86478611D01*
X186224576Y-86701055D01*
X186215170Y-86708775D01*
X185949106Y-86906102D01*
X185938988Y-86912862D01*
X185654883Y-87083148D01*
X185644151Y-87088885D01*
X185344702Y-87230514D01*
X185333459Y-87235170D01*
X185021588Y-87346759D01*
X185009944Y-87350292D01*
X184688630Y-87430777D01*
X184676694Y-87433151D01*
X184349037Y-87481754D01*
X184336928Y-87482947D01*
X184021989Y-87498419D01*
X184003031Y-87499351D01*
X183996949Y-87499500D01*
X154003051Y-87499500D01*
X153996968Y-87499351D01*
X153976900Y-87498365D01*
X153663071Y-87482947D01*
X153650962Y-87481754D01*
X153323305Y-87433151D01*
X153311369Y-87430777D01*
X152990055Y-87350292D01*
X152978411Y-87346759D01*
X152666540Y-87235170D01*
X152655301Y-87230515D01*
X152355844Y-87088883D01*
X152345121Y-87083150D01*
X152061011Y-86912862D01*
X152050893Y-86906102D01*
X151784829Y-86708775D01*
X151775423Y-86701055D01*
X151736475Y-86665755D01*
X151529986Y-86478604D01*
X151521395Y-86470013D01*
X151298944Y-86224576D01*
X151291224Y-86215170D01*
X151093897Y-85949106D01*
X151087137Y-85938988D01*
X150916844Y-85654871D01*
X150911120Y-85644163D01*
X150769479Y-85344688D01*
X150764829Y-85333459D01*
X150718944Y-85205220D01*
X150653240Y-85021588D01*
X150649707Y-85009944D01*
X150640958Y-84975015D01*
X150569219Y-84688617D01*
X150566848Y-84676694D01*
X150518245Y-84349037D01*
X150517052Y-84336927D01*
X150500649Y-84003032D01*
X150500500Y-83996948D01*
X150500500Y-83897648D01*
X152699500Y-83897648D01*
X152699500Y-84102351D01*
X152731522Y-84304534D01*
X152794781Y-84499223D01*
X152858691Y-84624653D01*
X152885208Y-84676694D01*
X152887715Y-84681613D01*
X153008028Y-84847213D01*
X153152786Y-84991971D01*
X153307749Y-85104556D01*
X153318390Y-85112287D01*
X153434607Y-85171503D01*
X153500776Y-85205218D01*
X153500778Y-85205218D01*
X153500781Y-85205220D01*
X153605137Y-85239127D01*
X153695465Y-85268477D01*
X153796557Y-85284488D01*
X153897648Y-85300500D01*
X153897649Y-85300500D01*
X154102351Y-85300500D01*
X154102352Y-85300500D01*
X154304534Y-85268477D01*
X154499219Y-85205220D01*
X154681610Y-85112287D01*
X154774590Y-85044732D01*
X154847213Y-84991971D01*
X154847215Y-84991968D01*
X154847219Y-84991966D01*
X154991966Y-84847219D01*
X154991968Y-84847215D01*
X154991971Y-84847213D01*
X155044732Y-84774590D01*
X155112287Y-84681610D01*
X155205220Y-84499219D01*
X155268477Y-84304534D01*
X155300500Y-84102352D01*
X155300500Y-83897648D01*
X182699500Y-83897648D01*
X182699500Y-84102351D01*
X182731522Y-84304534D01*
X182794781Y-84499223D01*
X182858691Y-84624653D01*
X182885208Y-84676694D01*
X182887715Y-84681613D01*
X183008028Y-84847213D01*
X183152786Y-84991971D01*
X183307749Y-85104556D01*
X183318390Y-85112287D01*
X183434607Y-85171503D01*
X183500776Y-85205218D01*
X183500778Y-85205218D01*
X183500781Y-85205220D01*
X183605137Y-85239127D01*
X183695465Y-85268477D01*
X183796557Y-85284488D01*
X183897648Y-85300500D01*
X183897649Y-85300500D01*
X184102351Y-85300500D01*
X184102352Y-85300500D01*
X184304534Y-85268477D01*
X184499219Y-85205220D01*
X184681610Y-85112287D01*
X184774590Y-85044732D01*
X184847213Y-84991971D01*
X184847215Y-84991968D01*
X184847219Y-84991966D01*
X184991966Y-84847219D01*
X184991968Y-84847215D01*
X184991971Y-84847213D01*
X185044732Y-84774590D01*
X185112287Y-84681610D01*
X185205220Y-84499219D01*
X185268477Y-84304534D01*
X185300500Y-84102352D01*
X185300500Y-83897648D01*
X185268477Y-83695466D01*
X185205220Y-83500781D01*
X185205218Y-83500778D01*
X185205218Y-83500776D01*
X185171503Y-83434607D01*
X185112287Y-83318390D01*
X185104556Y-83307749D01*
X184991971Y-83152786D01*
X184847213Y-83008028D01*
X184681613Y-82887715D01*
X184681612Y-82887714D01*
X184681610Y-82887713D01*
X184624653Y-82858691D01*
X184499223Y-82794781D01*
X184304534Y-82731522D01*
X184129995Y-82703878D01*
X184102352Y-82699500D01*
X183897648Y-82699500D01*
X183873329Y-82703351D01*
X183695465Y-82731522D01*
X183500776Y-82794781D01*
X183318386Y-82887715D01*
X183152786Y-83008028D01*
X183008028Y-83152786D01*
X182887715Y-83318386D01*
X182794781Y-83500776D01*
X182731522Y-83695465D01*
X182699500Y-83897648D01*
X155300500Y-83897648D01*
X155268477Y-83695466D01*
X155205220Y-83500781D01*
X155205218Y-83500778D01*
X155205218Y-83500776D01*
X155171503Y-83434607D01*
X155112287Y-83318390D01*
X155104556Y-83307749D01*
X154991971Y-83152786D01*
X154847213Y-83008028D01*
X154681613Y-82887715D01*
X154681612Y-82887714D01*
X154681610Y-82887713D01*
X154624653Y-82858691D01*
X154499223Y-82794781D01*
X154304534Y-82731522D01*
X154129995Y-82703878D01*
X154102352Y-82699500D01*
X153897648Y-82699500D01*
X153873329Y-82703351D01*
X153695465Y-82731522D01*
X153500776Y-82794781D01*
X153318386Y-82887715D01*
X153152786Y-83008028D01*
X153008028Y-83152786D01*
X152887715Y-83318386D01*
X152794781Y-83500776D01*
X152731522Y-83695465D01*
X152699500Y-83897648D01*
X150500500Y-83897648D01*
X150500500Y-75999998D01*
X154694318Y-75999998D01*
X154694318Y-76000001D01*
X154714955Y-76156760D01*
X154714956Y-76156762D01*
X154753576Y-76250000D01*
X154775464Y-76302841D01*
X154871718Y-76428282D01*
X154997159Y-76524536D01*
X155143238Y-76585044D01*
X155221619Y-76595363D01*
X155299999Y-76605682D01*
X155300000Y-76605682D01*
X155300001Y-76605682D01*
X155352254Y-76598802D01*
X155456762Y-76585044D01*
X155602841Y-76524536D01*
X155728282Y-76428282D01*
X155824536Y-76302841D01*
X155846424Y-76249998D01*
X178744532Y-76249998D01*
X178744532Y-76250001D01*
X178764364Y-76476686D01*
X178764366Y-76476697D01*
X178823258Y-76696488D01*
X178823261Y-76696497D01*
X178919431Y-76902732D01*
X178919432Y-76902734D01*
X179049954Y-77089141D01*
X179210858Y-77250045D01*
X179210861Y-77250047D01*
X179397266Y-77380568D01*
X179603504Y-77476739D01*
X179823308Y-77535635D01*
X179985230Y-77549801D01*
X180049998Y-77555468D01*
X180050000Y-77555468D01*
X180050002Y-77555468D01*
X180106673Y-77550509D01*
X180276692Y-77535635D01*
X180496496Y-77476739D01*
X180702734Y-77380568D01*
X180889139Y-77250047D01*
X181050047Y-77089139D01*
X181180568Y-76902734D01*
X181205159Y-76849998D01*
X183644532Y-76849998D01*
X183644532Y-76850001D01*
X183664364Y-77076686D01*
X183664366Y-77076697D01*
X183723258Y-77296488D01*
X183723261Y-77296497D01*
X183819431Y-77502732D01*
X183819432Y-77502734D01*
X183949954Y-77689141D01*
X184110858Y-77850045D01*
X184110861Y-77850047D01*
X184297266Y-77980568D01*
X184503504Y-78076739D01*
X184723308Y-78135635D01*
X184885230Y-78149801D01*
X184949998Y-78155468D01*
X184950000Y-78155468D01*
X184950002Y-78155468D01*
X185006673Y-78150509D01*
X185176692Y-78135635D01*
X185396496Y-78076739D01*
X185602734Y-77980568D01*
X185789139Y-77850047D01*
X185950047Y-77689139D01*
X186080568Y-77502734D01*
X186176739Y-77296496D01*
X186235635Y-77076692D01*
X186255468Y-76850000D01*
X186235635Y-76623308D01*
X186176739Y-76403504D01*
X186080568Y-76197266D01*
X185950047Y-76010861D01*
X185950045Y-76010858D01*
X185789141Y-75849954D01*
X185602734Y-75719432D01*
X185602732Y-75719431D01*
X185396497Y-75623261D01*
X185396488Y-75623258D01*
X185176697Y-75564366D01*
X185176693Y-75564365D01*
X185176692Y-75564365D01*
X185176691Y-75564364D01*
X185176686Y-75564364D01*
X184950002Y-75544532D01*
X184949998Y-75544532D01*
X184723313Y-75564364D01*
X184723302Y-75564366D01*
X184503511Y-75623258D01*
X184503502Y-75623261D01*
X184297267Y-75719431D01*
X184297265Y-75719432D01*
X184110858Y-75849954D01*
X183949954Y-76010858D01*
X183819432Y-76197265D01*
X183819431Y-76197267D01*
X183723261Y-76403502D01*
X183723258Y-76403511D01*
X183664366Y-76623302D01*
X183664364Y-76623313D01*
X183644532Y-76849998D01*
X181205159Y-76849998D01*
X181276739Y-76696496D01*
X181335635Y-76476692D01*
X181355468Y-76250000D01*
X181335635Y-76023308D01*
X181276739Y-75803504D01*
X181180568Y-75597266D01*
X181050047Y-75410861D01*
X181050045Y-75410858D01*
X180889141Y-75249954D01*
X180702734Y-75119432D01*
X180702732Y-75119431D01*
X180496497Y-75023261D01*
X180496488Y-75023258D01*
X180276697Y-74964366D01*
X180276693Y-74964365D01*
X180276692Y-74964365D01*
X180276691Y-74964364D01*
X180276686Y-74964364D01*
X180050002Y-74944532D01*
X180049998Y-74944532D01*
X179823313Y-74964364D01*
X179823302Y-74964366D01*
X179603511Y-75023258D01*
X179603502Y-75023261D01*
X179397267Y-75119431D01*
X179397265Y-75119432D01*
X179210858Y-75249954D01*
X179049954Y-75410858D01*
X178919432Y-75597265D01*
X178919431Y-75597267D01*
X178823261Y-75803502D01*
X178823258Y-75803511D01*
X178764366Y-76023302D01*
X178764364Y-76023313D01*
X178744532Y-76249998D01*
X155846424Y-76249998D01*
X155885044Y-76156762D01*
X155902613Y-76023313D01*
X155905682Y-76000001D01*
X155905682Y-75999998D01*
X155885044Y-75843239D01*
X155885044Y-75843238D01*
X155824536Y-75697159D01*
X155728282Y-75571718D01*
X155602841Y-75475464D01*
X155456762Y-75414956D01*
X155456760Y-75414955D01*
X155300001Y-75394318D01*
X155299999Y-75394318D01*
X155143239Y-75414955D01*
X155143237Y-75414956D01*
X154997160Y-75475463D01*
X154871718Y-75571718D01*
X154775463Y-75697160D01*
X154714956Y-75843237D01*
X154714955Y-75843239D01*
X154694318Y-75999998D01*
X150500500Y-75999998D01*
X150500500Y-72999998D01*
X154694318Y-72999998D01*
X154694318Y-73000001D01*
X154714955Y-73156760D01*
X154714956Y-73156762D01*
X154775464Y-73302841D01*
X154871718Y-73428282D01*
X154997159Y-73524536D01*
X155143238Y-73585044D01*
X155221619Y-73595363D01*
X155299999Y-73605682D01*
X155300000Y-73605682D01*
X155300001Y-73605682D01*
X155352254Y-73598802D01*
X155456762Y-73585044D01*
X155602841Y-73524536D01*
X155728282Y-73428282D01*
X155824536Y-73302841D01*
X155885044Y-73156762D01*
X155905682Y-73000000D01*
X155885044Y-72843238D01*
X155824536Y-72697159D01*
X155728282Y-72571718D01*
X155602841Y-72475464D01*
X155456762Y-72414956D01*
X155456760Y-72414955D01*
X155300001Y-72394318D01*
X155299999Y-72394318D01*
X155143239Y-72414955D01*
X155143237Y-72414956D01*
X154997160Y-72475463D01*
X154871718Y-72571718D01*
X154775463Y-72697160D01*
X154714956Y-72843237D01*
X154714955Y-72843239D01*
X154694318Y-72999998D01*
X150500500Y-72999998D01*
X150500500Y-71599998D01*
X173594318Y-71599998D01*
X173594318Y-71600001D01*
X173614955Y-71756760D01*
X173614956Y-71756762D01*
X173675464Y-71902841D01*
X173771718Y-72028282D01*
X173897159Y-72124536D01*
X174043238Y-72185044D01*
X174121619Y-72195363D01*
X174199999Y-72205682D01*
X174200000Y-72205682D01*
X174200001Y-72205682D01*
X174252254Y-72198802D01*
X174356762Y-72185044D01*
X174502841Y-72124536D01*
X174628282Y-72028282D01*
X174724536Y-71902841D01*
X174785044Y-71756762D01*
X174790838Y-71712751D01*
X174819102Y-71648858D01*
X174877426Y-71610386D01*
X174897591Y-71605999D01*
X174899999Y-71605681D01*
X174900000Y-71605682D01*
X174943174Y-71599998D01*
X180594318Y-71599998D01*
X180594318Y-71600001D01*
X180614955Y-71756760D01*
X180614956Y-71756762D01*
X180675464Y-71902841D01*
X180771718Y-72028282D01*
X180897159Y-72124536D01*
X181043238Y-72185044D01*
X181121619Y-72195363D01*
X181199999Y-72205682D01*
X181200000Y-72205682D01*
X181200001Y-72205682D01*
X181252254Y-72198802D01*
X181356762Y-72185044D01*
X181502841Y-72124536D01*
X181628282Y-72028282D01*
X181724536Y-71902841D01*
X181785044Y-71756762D01*
X181805682Y-71600000D01*
X181785044Y-71443238D01*
X181724536Y-71297159D01*
X181628282Y-71171718D01*
X181502841Y-71075464D01*
X181356762Y-71014956D01*
X181356760Y-71014955D01*
X181200001Y-70994318D01*
X181199999Y-70994318D01*
X181043239Y-71014955D01*
X181043237Y-71014956D01*
X180897160Y-71075463D01*
X180771718Y-71171718D01*
X180675463Y-71297160D01*
X180614956Y-71443237D01*
X180614955Y-71443239D01*
X180594318Y-71599998D01*
X174943174Y-71599998D01*
X175056762Y-71585044D01*
X175202841Y-71524536D01*
X175328282Y-71428282D01*
X175424536Y-71302841D01*
X175485044Y-71156762D01*
X175505682Y-71000000D01*
X175485044Y-70843238D01*
X175424536Y-70697159D01*
X175328282Y-70571718D01*
X175202841Y-70475464D01*
X175056762Y-70414956D01*
X175056760Y-70414955D01*
X174900001Y-70394318D01*
X174899999Y-70394318D01*
X174743239Y-70414955D01*
X174743237Y-70414956D01*
X174597160Y-70475463D01*
X174471718Y-70571718D01*
X174375463Y-70697160D01*
X174314956Y-70843237D01*
X174314956Y-70843239D01*
X174309162Y-70887247D01*
X174280895Y-70951144D01*
X174222570Y-70989614D01*
X174202409Y-70994000D01*
X174064568Y-71012147D01*
X174043238Y-71014956D01*
X174043237Y-71014956D01*
X173897160Y-71075463D01*
X173771718Y-71171718D01*
X173675463Y-71297160D01*
X173614956Y-71443237D01*
X173614955Y-71443239D01*
X173594318Y-71599998D01*
X150500500Y-71599998D01*
X150500500Y-69999998D01*
X154694318Y-69999998D01*
X154694318Y-70000001D01*
X154714955Y-70156760D01*
X154714956Y-70156762D01*
X154775464Y-70302841D01*
X154871718Y-70428282D01*
X154997159Y-70524536D01*
X155143238Y-70585044D01*
X155221619Y-70595363D01*
X155299999Y-70605682D01*
X155300000Y-70605682D01*
X155300001Y-70605682D01*
X155352254Y-70598802D01*
X155456762Y-70585044D01*
X155602841Y-70524536D01*
X155728282Y-70428282D01*
X155824536Y-70302841D01*
X155885044Y-70156762D01*
X155905682Y-70000000D01*
X155885044Y-69843238D01*
X155824536Y-69697159D01*
X155728282Y-69571718D01*
X155602841Y-69475464D01*
X155557690Y-69456762D01*
X155456762Y-69414956D01*
X155456760Y-69414955D01*
X155300001Y-69394318D01*
X155299999Y-69394318D01*
X155143239Y-69414955D01*
X155143237Y-69414956D01*
X154997160Y-69475463D01*
X154871718Y-69571718D01*
X154775463Y-69697160D01*
X154714956Y-69843237D01*
X154714955Y-69843239D01*
X154694318Y-69999998D01*
X150500500Y-69999998D01*
X150500500Y-69299998D01*
X180594318Y-69299998D01*
X180594318Y-69300001D01*
X180614955Y-69456760D01*
X180614956Y-69456762D01*
X180675464Y-69602841D01*
X180771718Y-69728282D01*
X180897159Y-69824536D01*
X181043238Y-69885044D01*
X181121619Y-69895363D01*
X181199999Y-69905682D01*
X181200000Y-69905682D01*
X181200001Y-69905682D01*
X181252254Y-69898802D01*
X181356762Y-69885044D01*
X181502841Y-69824536D01*
X181628282Y-69728282D01*
X181724536Y-69602841D01*
X181785044Y-69456762D01*
X181805682Y-69300000D01*
X181785044Y-69143238D01*
X181724536Y-68997159D01*
X181628282Y-68871718D01*
X181502841Y-68775464D01*
X181356762Y-68714956D01*
X181356760Y-68714955D01*
X181200001Y-68694318D01*
X181199999Y-68694318D01*
X181043239Y-68714955D01*
X181043237Y-68714956D01*
X180897160Y-68775463D01*
X180771718Y-68871718D01*
X180675463Y-68997160D01*
X180614956Y-69143237D01*
X180614955Y-69143239D01*
X180594318Y-69299998D01*
X150500500Y-69299998D01*
X150500500Y-67774998D01*
X180544318Y-67774998D01*
X180544318Y-67775001D01*
X180564955Y-67931760D01*
X180564956Y-67931762D01*
X180625464Y-68077841D01*
X180721718Y-68203282D01*
X180847159Y-68299536D01*
X180993238Y-68360044D01*
X181071619Y-68370363D01*
X181149999Y-68380682D01*
X181150000Y-68380682D01*
X181150001Y-68380682D01*
X181202254Y-68373802D01*
X181306762Y-68360044D01*
X181452841Y-68299536D01*
X181578282Y-68203282D01*
X181674536Y-68077841D01*
X181735044Y-67931762D01*
X181755682Y-67775000D01*
X181735044Y-67618238D01*
X181674536Y-67472159D01*
X181578282Y-67346718D01*
X181452841Y-67250464D01*
X181306762Y-67189956D01*
X181306760Y-67189955D01*
X181150001Y-67169318D01*
X181149999Y-67169318D01*
X180993239Y-67189955D01*
X180993237Y-67189956D01*
X180847160Y-67250463D01*
X180721718Y-67346718D01*
X180625463Y-67472160D01*
X180564956Y-67618237D01*
X180564955Y-67618239D01*
X180544318Y-67774998D01*
X150500500Y-67774998D01*
X150500500Y-66999998D01*
X154694318Y-66999998D01*
X154694318Y-67000001D01*
X154714955Y-67156760D01*
X154714956Y-67156762D01*
X154775464Y-67302841D01*
X154871718Y-67428282D01*
X154997159Y-67524536D01*
X155143238Y-67585044D01*
X155221619Y-67595363D01*
X155299999Y-67605682D01*
X155300000Y-67605682D01*
X155300001Y-67605682D01*
X155352254Y-67598802D01*
X155456762Y-67585044D01*
X155602841Y-67524536D01*
X155728282Y-67428282D01*
X155824536Y-67302841D01*
X155885044Y-67156762D01*
X155905682Y-67000000D01*
X155885044Y-66843238D01*
X155824536Y-66697159D01*
X155728282Y-66571718D01*
X155602841Y-66475464D01*
X155456762Y-66414956D01*
X155456760Y-66414955D01*
X155300001Y-66394318D01*
X155299999Y-66394318D01*
X155143239Y-66414955D01*
X155143237Y-66414956D01*
X154997160Y-66475463D01*
X154871718Y-66571718D01*
X154775463Y-66697160D01*
X154714956Y-66843237D01*
X154714955Y-66843239D01*
X154694318Y-66999998D01*
X150500500Y-66999998D01*
X150500500Y-66274998D01*
X180519318Y-66274998D01*
X180519318Y-66275001D01*
X180539955Y-66431760D01*
X180539956Y-66431762D01*
X180600464Y-66577841D01*
X180696718Y-66703282D01*
X180822159Y-66799536D01*
X180968238Y-66860044D01*
X181046619Y-66870363D01*
X181124999Y-66880682D01*
X181125000Y-66880682D01*
X181125001Y-66880682D01*
X181177254Y-66873802D01*
X181281762Y-66860044D01*
X181427841Y-66799536D01*
X181553282Y-66703282D01*
X181649536Y-66577841D01*
X181710044Y-66431762D01*
X181730682Y-66275000D01*
X181710044Y-66118238D01*
X181649536Y-65972159D01*
X181553282Y-65846718D01*
X181427841Y-65750464D01*
X181281762Y-65689956D01*
X181281760Y-65689955D01*
X181125001Y-65669318D01*
X181124999Y-65669318D01*
X180968239Y-65689955D01*
X180968237Y-65689956D01*
X180822160Y-65750463D01*
X180696718Y-65846718D01*
X180600463Y-65972160D01*
X180539956Y-66118237D01*
X180539955Y-66118239D01*
X180519318Y-66274998D01*
X150500500Y-66274998D01*
X150500500Y-64749998D01*
X180494318Y-64749998D01*
X180494318Y-64750001D01*
X180514955Y-64906760D01*
X180514956Y-64906762D01*
X180575464Y-65052841D01*
X180671718Y-65178282D01*
X180797159Y-65274536D01*
X180943238Y-65335044D01*
X181021619Y-65345363D01*
X181099999Y-65355682D01*
X181100000Y-65355682D01*
X181100001Y-65355682D01*
X181152254Y-65348802D01*
X181256762Y-65335044D01*
X181402841Y-65274536D01*
X181528282Y-65178282D01*
X181624536Y-65052841D01*
X181685044Y-64906762D01*
X181705682Y-64750000D01*
X181685044Y-64593238D01*
X181624536Y-64447159D01*
X181528282Y-64321718D01*
X181402841Y-64225464D01*
X181256762Y-64164956D01*
X181256760Y-64164955D01*
X181100001Y-64144318D01*
X181099999Y-64144318D01*
X180943239Y-64164955D01*
X180943237Y-64164956D01*
X180797160Y-64225463D01*
X180671718Y-64321718D01*
X180575463Y-64447160D01*
X180514956Y-64593237D01*
X180514955Y-64593239D01*
X180494318Y-64749998D01*
X150500500Y-64749998D01*
X150500500Y-63671748D01*
X160094318Y-63671748D01*
X160094318Y-63671751D01*
X160114955Y-63828510D01*
X160114956Y-63828512D01*
X160175464Y-63974591D01*
X160271718Y-64100032D01*
X160397159Y-64196286D01*
X160543238Y-64256794D01*
X160621619Y-64267113D01*
X160699999Y-64277432D01*
X160700000Y-64277432D01*
X160700001Y-64277432D01*
X160752254Y-64270552D01*
X160856762Y-64256794D01*
X161002841Y-64196286D01*
X161128282Y-64100032D01*
X161224536Y-63974591D01*
X161285044Y-63828512D01*
X161301357Y-63704599D01*
X161329623Y-63640703D01*
X161387948Y-63602232D01*
X161440480Y-63597846D01*
X161500000Y-63605682D01*
X161500001Y-63605682D01*
X161559521Y-63597846D01*
X161656762Y-63585044D01*
X161802841Y-63524536D01*
X161928282Y-63428282D01*
X162024536Y-63302841D01*
X162085044Y-63156762D01*
X162105682Y-63000000D01*
X162085044Y-62843238D01*
X162024536Y-62697159D01*
X161928282Y-62571718D01*
X161802841Y-62475464D01*
X161754566Y-62455468D01*
X161656762Y-62414956D01*
X161656760Y-62414955D01*
X161500001Y-62394318D01*
X161499999Y-62394318D01*
X161343239Y-62414955D01*
X161343237Y-62414956D01*
X161197160Y-62475463D01*
X161071718Y-62571718D01*
X160975463Y-62697160D01*
X160914956Y-62843237D01*
X160914956Y-62843239D01*
X160898642Y-62967150D01*
X160870375Y-63031046D01*
X160812050Y-63069517D01*
X160759519Y-63073903D01*
X160700003Y-63066068D01*
X160699999Y-63066068D01*
X160543239Y-63086705D01*
X160543237Y-63086706D01*
X160397160Y-63147213D01*
X160271718Y-63243468D01*
X160175463Y-63368910D01*
X160114956Y-63514987D01*
X160114955Y-63514989D01*
X160094318Y-63671748D01*
X150500500Y-63671748D01*
X150500500Y-61749998D01*
X178744532Y-61749998D01*
X178744532Y-61750001D01*
X178764364Y-61976686D01*
X178764366Y-61976697D01*
X178823258Y-62196488D01*
X178823261Y-62196497D01*
X178919431Y-62402732D01*
X178919432Y-62402734D01*
X179049954Y-62589141D01*
X179210858Y-62750045D01*
X179210861Y-62750047D01*
X179397266Y-62880568D01*
X179603504Y-62976739D01*
X179823308Y-63035635D01*
X179985230Y-63049801D01*
X180049998Y-63055468D01*
X180050000Y-63055468D01*
X180050002Y-63055468D01*
X180106673Y-63050509D01*
X180276692Y-63035635D01*
X180496496Y-62976739D01*
X180702734Y-62880568D01*
X180889139Y-62750047D01*
X181050047Y-62589139D01*
X181180568Y-62402734D01*
X181276739Y-62196496D01*
X181335635Y-61976692D01*
X181355468Y-61750000D01*
X181335635Y-61523308D01*
X181276739Y-61303504D01*
X181205157Y-61149998D01*
X183644532Y-61149998D01*
X183644532Y-61150001D01*
X183664364Y-61376686D01*
X183664366Y-61376697D01*
X183723258Y-61596488D01*
X183723261Y-61596497D01*
X183819431Y-61802732D01*
X183819432Y-61802734D01*
X183949954Y-61989141D01*
X184110858Y-62150045D01*
X184110861Y-62150047D01*
X184297266Y-62280568D01*
X184503504Y-62376739D01*
X184723308Y-62435635D01*
X184885230Y-62449801D01*
X184949998Y-62455468D01*
X184950000Y-62455468D01*
X184950002Y-62455468D01*
X185006673Y-62450509D01*
X185176692Y-62435635D01*
X185396496Y-62376739D01*
X185602734Y-62280568D01*
X185789139Y-62150047D01*
X185950047Y-61989139D01*
X186080568Y-61802734D01*
X186176739Y-61596496D01*
X186235635Y-61376692D01*
X186255468Y-61150000D01*
X186235635Y-60923308D01*
X186176739Y-60703504D01*
X186080568Y-60497266D01*
X185950047Y-60310861D01*
X185950045Y-60310858D01*
X185789141Y-60149954D01*
X185602734Y-60019432D01*
X185602732Y-60019431D01*
X185396497Y-59923261D01*
X185396488Y-59923258D01*
X185176697Y-59864366D01*
X185176693Y-59864365D01*
X185176692Y-59864365D01*
X185176691Y-59864364D01*
X185176686Y-59864364D01*
X184950002Y-59844532D01*
X184949998Y-59844532D01*
X184723313Y-59864364D01*
X184723302Y-59864366D01*
X184503511Y-59923258D01*
X184503502Y-59923261D01*
X184297267Y-60019431D01*
X184297265Y-60019432D01*
X184110858Y-60149954D01*
X183949954Y-60310858D01*
X183819432Y-60497265D01*
X183819431Y-60497267D01*
X183723261Y-60703502D01*
X183723258Y-60703511D01*
X183664366Y-60923302D01*
X183664364Y-60923313D01*
X183644532Y-61149998D01*
X181205157Y-61149998D01*
X181180568Y-61097266D01*
X181050047Y-60910861D01*
X181050045Y-60910858D01*
X180889141Y-60749954D01*
X180702734Y-60619432D01*
X180702732Y-60619431D01*
X180496497Y-60523261D01*
X180496488Y-60523258D01*
X180276697Y-60464366D01*
X180276693Y-60464365D01*
X180276692Y-60464365D01*
X180276691Y-60464364D01*
X180276686Y-60464364D01*
X180050002Y-60444532D01*
X180049998Y-60444532D01*
X179823313Y-60464364D01*
X179823302Y-60464366D01*
X179603511Y-60523258D01*
X179603502Y-60523261D01*
X179397267Y-60619431D01*
X179397265Y-60619432D01*
X179210858Y-60749954D01*
X179049954Y-60910858D01*
X178919432Y-61097265D01*
X178919431Y-61097267D01*
X178823261Y-61303502D01*
X178823258Y-61303511D01*
X178764366Y-61523302D01*
X178764364Y-61523313D01*
X178744532Y-61749998D01*
X150500500Y-61749998D01*
X150500500Y-54003051D01*
X150500649Y-53996967D01*
X150505528Y-53897648D01*
X152699500Y-53897648D01*
X152699500Y-54102351D01*
X152731522Y-54304534D01*
X152794781Y-54499223D01*
X152887715Y-54681613D01*
X153008028Y-54847213D01*
X153152786Y-54991971D01*
X153307749Y-55104556D01*
X153318390Y-55112287D01*
X153434607Y-55171503D01*
X153500776Y-55205218D01*
X153500778Y-55205218D01*
X153500781Y-55205220D01*
X153605137Y-55239127D01*
X153695465Y-55268477D01*
X153796557Y-55284488D01*
X153897648Y-55300500D01*
X153897649Y-55300500D01*
X154102351Y-55300500D01*
X154102352Y-55300500D01*
X154304534Y-55268477D01*
X154499219Y-55205220D01*
X154681610Y-55112287D01*
X154774590Y-55044732D01*
X154847213Y-54991971D01*
X154847215Y-54991968D01*
X154847219Y-54991966D01*
X154991966Y-54847219D01*
X154991968Y-54847215D01*
X154991971Y-54847213D01*
X155044732Y-54774590D01*
X155112287Y-54681610D01*
X155205220Y-54499219D01*
X155268477Y-54304534D01*
X155300500Y-54102352D01*
X155300500Y-53897648D01*
X182699500Y-53897648D01*
X182699500Y-54102351D01*
X182731522Y-54304534D01*
X182794781Y-54499223D01*
X182887715Y-54681613D01*
X183008028Y-54847213D01*
X183152786Y-54991971D01*
X183307749Y-55104556D01*
X183318390Y-55112287D01*
X183434607Y-55171503D01*
X183500776Y-55205218D01*
X183500778Y-55205218D01*
X183500781Y-55205220D01*
X183605137Y-55239127D01*
X183695465Y-55268477D01*
X183796557Y-55284488D01*
X183897648Y-55300500D01*
X183897649Y-55300500D01*
X184102351Y-55300500D01*
X184102352Y-55300500D01*
X184304534Y-55268477D01*
X184499219Y-55205220D01*
X184681610Y-55112287D01*
X184774590Y-55044732D01*
X184847213Y-54991971D01*
X184847215Y-54991968D01*
X184847219Y-54991966D01*
X184991966Y-54847219D01*
X184991968Y-54847215D01*
X184991971Y-54847213D01*
X185044732Y-54774590D01*
X185112287Y-54681610D01*
X185205220Y-54499219D01*
X185268477Y-54304534D01*
X185300500Y-54102352D01*
X185300500Y-53897648D01*
X185268477Y-53695466D01*
X185205220Y-53500781D01*
X185205218Y-53500778D01*
X185205218Y-53500776D01*
X185159987Y-53412007D01*
X185112287Y-53318390D01*
X185104556Y-53307749D01*
X184991971Y-53152786D01*
X184847213Y-53008028D01*
X184681613Y-52887715D01*
X184681612Y-52887714D01*
X184681610Y-52887713D01*
X184624653Y-52858691D01*
X184499223Y-52794781D01*
X184304534Y-52731522D01*
X184129995Y-52703878D01*
X184102352Y-52699500D01*
X183897648Y-52699500D01*
X183873329Y-52703351D01*
X183695465Y-52731522D01*
X183500776Y-52794781D01*
X183318386Y-52887715D01*
X183152786Y-53008028D01*
X183008028Y-53152786D01*
X182887715Y-53318386D01*
X182794781Y-53500776D01*
X182731522Y-53695465D01*
X182699500Y-53897648D01*
X155300500Y-53897648D01*
X155268477Y-53695466D01*
X155205220Y-53500781D01*
X155205218Y-53500778D01*
X155205218Y-53500776D01*
X155159987Y-53412007D01*
X155112287Y-53318390D01*
X155104556Y-53307749D01*
X154991971Y-53152786D01*
X154847213Y-53008028D01*
X154681613Y-52887715D01*
X154681612Y-52887714D01*
X154681610Y-52887713D01*
X154624653Y-52858691D01*
X154499223Y-52794781D01*
X154304534Y-52731522D01*
X154129995Y-52703878D01*
X154102352Y-52699500D01*
X153897648Y-52699500D01*
X153873329Y-52703351D01*
X153695465Y-52731522D01*
X153500776Y-52794781D01*
X153318386Y-52887715D01*
X153152786Y-53008028D01*
X153008028Y-53152786D01*
X152887715Y-53318386D01*
X152794781Y-53500776D01*
X152731522Y-53695465D01*
X152699500Y-53897648D01*
X150505528Y-53897648D01*
X150517052Y-53663072D01*
X150518245Y-53650962D01*
X150540523Y-53500776D01*
X150566849Y-53323296D01*
X150569218Y-53311385D01*
X150649710Y-52990043D01*
X150653240Y-52978411D01*
X150764835Y-52666525D01*
X150769476Y-52655318D01*
X150911124Y-52355828D01*
X150916840Y-52345136D01*
X151087145Y-52060998D01*
X151093888Y-52050905D01*
X151291232Y-51784818D01*
X151298935Y-51775433D01*
X151521405Y-51529975D01*
X151529975Y-51521405D01*
X151775433Y-51298935D01*
X151784818Y-51291232D01*
X152050905Y-51093888D01*
X152060998Y-51087145D01*
X152345136Y-50916840D01*
X152355828Y-50911124D01*
X152655318Y-50769476D01*
X152666525Y-50764835D01*
X152978412Y-50653239D01*
X152990043Y-50649710D01*
X153311385Y-50569218D01*
X153323296Y-50566849D01*
X153650962Y-50518244D01*
X153663068Y-50517052D01*
X153996967Y-50500648D01*
X154003051Y-50500500D01*
X154065892Y-50500500D01*
X183934108Y-50500500D01*
X183996949Y-50500500D01*
X184003032Y-50500648D01*
G37*
%TD.AperFunction*%
%TD*%
M02*
